<?xml version="1.0" encoding="utf-8" standalone="no"?>
<!DOCTYPE svg PUBLIC "-//W3C//DTD SVG 1.1//EN"
  "http://www.w3.org/Graphics/SVG/1.1/DTD/svg11.dtd">
<svg xmlns:xlink="http://www.w3.org/1999/xlink" width="685.886656pt" height="286pt" viewBox="0 0 685.886656 286" xmlns="http://www.w3.org/2000/svg" version="1.1">
 <metadata>
  <rdf:RDF xmlns:dc="http://purl.org/dc/elements/1.1/" xmlns:cc="http://creativecommons.org/ns#" xmlns:rdf="http://www.w3.org/1999/02/22-rdf-syntax-ns#">
   <cc:Work>
    <dc:type rdf:resource="http://purl.org/dc/dcmitype/StillImage"/>
    <dc:format>image/svg+xml</dc:format>
    <dc:creator>
     <cc:Agent>
      <dc:title>Matplotlib v3.11.0, https://matplotlib.org/</dc:title>
     </cc:Agent>
    </dc:creator>
   </cc:Work>
  </rdf:RDF>
 </metadata>
 <defs>
  <style type="text/css">*{stroke-linejoin: round; stroke-linecap: butt}</style>
 </defs>
 <g id="figure_1">
  <g id="patch_1">
   <path d="M 0 286 
L 685.886656 286 
L 685.886656 0 
L 0 0 
L 0 286 
z
" style="fill: none"/>
  </g>
  <g id="axes_1">
   <g id="patch_2">
    <path d="M 175.68 256.14 
L 184.32 256.14 
L 184.32 104.94 
L 175.68 104.94 
z
" clip-path="url(#p013bd9ae7f)" style="fill: #0d1117"/>
   </g>
   <g id="patch_3">
    <path d="M 24.48 256.14 
L 28.44 256.14 
L 179.64 104.94 
L 175.68 104.94 
z
" clip-path="url(#pfaeb7109f0)" style="fill: #e8692a"/>
   </g>
   <g id="patch_4">
    <path d="M 32.4 256.14 
L 36.36 256.14 
L 187.56 104.94 
L 183.6 104.94 
z
" clip-path="url(#pfaeb7109f0)" style="fill: #e8692a"/>
   </g>
   <g id="patch_5">
    <path d="M 40.32 256.14 
L 44.28 256.14 
L 195.48 104.94 
L 191.52 104.94 
z
" clip-path="url(#pfaeb7109f0)" style="fill: #e8692a"/>
   </g>
   <g id="patch_6">
    <path d="M 48.24 256.14 
L 52.2 256.14 
L 203.4 104.94 
L 199.44 104.94 
z
" clip-path="url(#pfaeb7109f0)" style="fill: #e8692a"/>
   </g>
   <g id="patch_7">
    <path d="M 56.16 256.14 
L 60.12 256.14 
L 211.32 104.94 
L 207.36 104.94 
z
" clip-path="url(#pfaeb7109f0)" style="fill: #e8692a"/>
   </g>
   <g id="patch_8">
    <path d="M 64.08 256.14 
L 68.04 256.14 
L 219.24 104.94 
L 215.28 104.94 
z
" clip-path="url(#pfaeb7109f0)" style="fill: #e8692a"/>
   </g>
   <g id="patch_9">
    <path d="M 72 256.14 
L 75.96 256.14 
L 227.16 104.94 
L 223.2 104.94 
z
" clip-path="url(#pfaeb7109f0)" style="fill: #e8692a"/>
   </g>
   <g id="patch_10">
    <path d="M 79.92 256.14 
L 83.88 256.14 
L 235.08 104.94 
L 231.12 104.94 
z
" clip-path="url(#pfaeb7109f0)" style="fill: #e8692a"/>
   </g>
   <g id="patch_11">
    <path d="M 87.84 256.14 
L 91.8 256.14 
L 243 104.94 
L 239.04 104.94 
z
" clip-path="url(#pfaeb7109f0)" style="fill: #e8692a"/>
   </g>
   <g id="patch_12">
    <path d="M 95.76 256.14 
L 99.72 256.14 
L 250.92 104.94 
L 246.96 104.94 
z
" clip-path="url(#pfaeb7109f0)" style="fill: #e8692a"/>
   </g>
   <g id="patch_13">
    <path d="M 103.68 256.14 
L 107.64 256.14 
L 258.84 104.94 
L 254.88 104.94 
z
" clip-path="url(#pfaeb7109f0)" style="fill: #e8692a"/>
   </g>
   <g id="patch_14">
    <path d="M 111.6 256.14 
L 115.56 256.14 
L 266.76 104.94 
L 262.8 104.94 
z
" clip-path="url(#pfaeb7109f0)" style="fill: #e8692a"/>
   </g>
   <g id="patch_15">
    <path d="M 119.52 256.14 
L 123.48 256.14 
L 274.68 104.94 
L 270.72 104.94 
z
" clip-path="url(#pfaeb7109f0)" style="fill: #e8692a"/>
   </g>
   <g id="patch_16">
    <path d="M 127.44 256.14 
L 131.4 256.14 
L 282.6 104.94 
L 278.64 104.94 
z
" clip-path="url(#pfaeb7109f0)" style="fill: #e8692a"/>
   </g>
   <g id="patch_17">
    <path d="M 135.36 256.14 
L 139.32 256.14 
L 290.52 104.94 
L 286.56 104.94 
z
" clip-path="url(#pfaeb7109f0)" style="fill: #e8692a"/>
   </g>
   <g id="patch_18">
    <path d="M 143.28 256.14 
L 147.24 256.14 
L 298.44 104.94 
L 294.48 104.94 
z
" clip-path="url(#pfaeb7109f0)" style="fill: #e8692a"/>
   </g>
   <g id="patch_19">
    <path d="M 151.2 256.14 
L 155.16 256.14 
L 306.36 104.94 
L 302.4 104.94 
z
" clip-path="url(#pfaeb7109f0)" style="fill: #e8692a"/>
   </g>
   <g id="patch_20">
    <path d="M 159.12 256.14 
L 163.08 256.14 
L 314.28 104.94 
L 310.32 104.94 
z
" clip-path="url(#pfaeb7109f0)" style="fill: #e8692a"/>
   </g>
   <g id="patch_21">
    <path d="M 167.04 256.14 
L 171 256.14 
L 322.2 104.94 
L 318.24 104.94 
z
" clip-path="url(#pfaeb7109f0)" style="fill: #e8692a"/>
   </g>
   <g id="patch_22">
    <path d="M 174.96 256.14 
L 178.92 256.14 
L 330.12 104.94 
L 326.16 104.94 
z
" clip-path="url(#pfaeb7109f0)" style="fill: #e8692a"/>
   </g>
   <g id="patch_23">
    <path d="M 182.88 256.14 
L 186.84 256.14 
L 338.04 104.94 
L 334.08 104.94 
z
" clip-path="url(#pfaeb7109f0)" style="fill: #e8692a"/>
   </g>
  </g>
  <g id="axes_2">
   <g id="patch_24">
    <path d="M 207.36 264.24 
L 484.56 264.24 
L 484.56 37.44 
L 207.36 37.44 
L 207.36 264.24 
z
" style="fill: none"/>
   </g>
   <g id="matplotlib.axis_1">
    <g id="xtick_1">
     <g id="line2d_1">
      <path d="M 207.36 264.24 
L 207.36 37.44 
" clip-path="url(#pe8eae03fb5)" style="fill: none; stroke: #30363d; stroke-linecap: square"/>
     </g>
     <g id="line2d_2"/>
     <g id="text_1">
      <!-- 0,6 -->
      <g style="fill: #9198a1" transform="translate(200.424844 278.29) scale(0.1 -0.1)">
       <defs>
        <path id="Lato-Regular-18f" d="M 3520 2291 
Q 3520 1690 3390 1250 
Q 3261 810 3037 522 
Q 2813 234 2507 93 
Q 2202 -48 1853 -48 
Q 1501 -48 1198 93 
Q 896 234 672 522 
Q 448 810 320 1250 
Q 192 1690 192 2291 
Q 192 2893 320 3334 
Q 448 3776 672 4065 
Q 896 4355 1198 4496 
Q 1501 4637 1853 4637 
Q 2202 4637 2507 4496 
Q 2813 4355 3037 4065 
Q 3261 3776 3390 3334 
Q 3520 2893 3520 2291 
z
M 2928 2291 
Q 2928 2816 2840 3173 
Q 2752 3530 2603 3747 
Q 2454 3965 2259 4059 
Q 2064 4154 1853 4154 
Q 1642 4154 1446 4059 
Q 1251 3965 1104 3747 
Q 957 3530 869 3173 
Q 781 2816 781 2291 
Q 781 1766 869 1411 
Q 957 1056 1104 838 
Q 1251 621 1446 526 
Q 1642 432 1853 432 
Q 2064 432 2259 526 
Q 2454 621 2603 838 
Q 2752 1056 2840 1411 
Q 2928 1766 2928 2291 
z
" transform="scale(0.015625)"/>
        <path id="Lato-Regular-137" d="M 416 -774 
Q 390 -752 380 -733 
Q 371 -714 371 -685 
Q 371 -662 385 -640 
Q 400 -618 419 -598 
Q 451 -563 500 -505 
Q 550 -448 601 -369 
Q 653 -291 696 -196 
Q 739 -102 758 3 
Q 749 0 737 0 
Q 726 0 717 0 
Q 550 0 446 110 
Q 342 221 342 394 
Q 342 544 446 649 
Q 550 755 723 755 
Q 819 755 892 720 
Q 966 685 1016 622 
Q 1066 560 1091 478 
Q 1117 397 1117 301 
Q 1117 157 1077 1 
Q 1037 -154 958 -306 
Q 880 -458 768 -602 
Q 656 -746 512 -867 
L 416 -774 
z
" transform="scale(0.015625)"/>
        <path id="Lato-Regular-475" d="M 1850 422 
Q 2080 422 2267 496 
Q 2454 570 2587 701 
Q 2720 832 2792 1011 
Q 2864 1190 2864 1402 
Q 2864 1626 2793 1806 
Q 2723 1987 2593 2113 
Q 2464 2240 2285 2307 
Q 2106 2374 1891 2374 
Q 1661 2374 1475 2296 
Q 1290 2218 1160 2085 
Q 1030 1952 961 1777 
Q 893 1603 893 1414 
Q 893 1194 957 1011 
Q 1021 829 1144 697 
Q 1267 566 1444 494 
Q 1622 422 1850 422 
z
M 1517 2867 
Q 1456 2790 1400 2718 
Q 1344 2646 1293 2576 
Q 1456 2688 1651 2749 
Q 1846 2810 2077 2810 
Q 2355 2810 2601 2718 
Q 2848 2627 3032 2452 
Q 3216 2278 3325 2024 
Q 3434 1770 3434 1443 
Q 3434 1126 3318 854 
Q 3203 582 2996 380 
Q 2790 179 2500 64 
Q 2211 -51 1862 -51 
Q 1517 -51 1235 59 
Q 954 170 757 373 
Q 560 576 453 865 
Q 346 1155 346 1514 
Q 346 1814 478 2155 
Q 611 2496 902 2883 
L 2067 4448 
Q 2112 4506 2190 4546 
Q 2269 4586 2371 4586 
L 2877 4586 
L 1517 2867 
z
" transform="scale(0.015625)"/>
       </defs>
       <use xlink:href="#Lato-Regular-18f"/>
       <use xlink:href="#Lato-Regular-137" transform="translate(58 0)"/>
       <use xlink:href="#Lato-Regular-475" transform="translate(80.703125 0)"/>
      </g>
     </g>
    </g>
    <g id="xtick_2">
     <g id="line2d_3">
      <path d="M 276.66 264.24 
L 276.66 37.44 
" clip-path="url(#pe8eae03fb5)" style="fill: none; stroke: #30363d; stroke-linecap: square"/>
     </g>
     <g id="line2d_4"/>
     <g id="text_2">
      <!-- 0,7 -->
      <g style="fill: #9198a1" transform="translate(269.724844 278.29) scale(0.1 -0.1)">
       <defs>
        <path id="Lato-Regular-195" d="M 3459 4586 
L 3459 4330 
Q 3459 4221 3435 4150 
Q 3411 4080 3389 4032 
L 1488 202 
Q 1446 118 1372 59 
Q 1299 0 1178 0 
L 768 0 
L 2694 3782 
Q 2736 3862 2781 3929 
Q 2826 3997 2877 4058 
L 483 4058 
Q 429 4058 387 4101 
Q 346 4144 346 4198 
L 346 4586 
L 3459 4586 
z
" transform="scale(0.015625)"/>
       </defs>
       <use xlink:href="#Lato-Regular-18f"/>
       <use xlink:href="#Lato-Regular-137" transform="translate(58 0)"/>
       <use xlink:href="#Lato-Regular-195" transform="translate(80.703125 0)"/>
      </g>
     </g>
    </g>
    <g id="xtick_3">
     <g id="line2d_5">
      <path d="M 345.96 264.24 
L 345.96 37.44 
" clip-path="url(#pe8eae03fb5)" style="fill: none; stroke: #30363d; stroke-linecap: square"/>
     </g>
     <g id="line2d_6"/>
     <g id="text_3">
      <!-- 0,8 -->
      <g style="fill: #9198a1" transform="translate(339.024844 278.29) scale(0.1 -0.1)">
       <defs>
        <path id="Lato-Regular-476" d="M 1856 403 
Q 2080 403 2257 465 
Q 2435 528 2558 641 
Q 2682 755 2747 913 
Q 2813 1072 2813 1264 
Q 2813 1501 2734 1669 
Q 2656 1837 2523 1942 
Q 2390 2048 2217 2097 
Q 2045 2147 1856 2147 
Q 1667 2147 1494 2097 
Q 1322 2048 1189 1942 
Q 1056 1837 977 1669 
Q 899 1501 899 1264 
Q 899 1072 964 913 
Q 1030 755 1153 641 
Q 1277 528 1454 465 
Q 1632 403 1856 403 
z
M 1856 4195 
Q 1651 4195 1496 4134 
Q 1341 4074 1237 3968 
Q 1133 3862 1080 3721 
Q 1027 3581 1027 3421 
Q 1027 3264 1072 3117 
Q 1117 2970 1216 2856 
Q 1315 2742 1473 2673 
Q 1632 2605 1856 2605 
Q 2080 2605 2238 2673 
Q 2397 2742 2496 2856 
Q 2595 2970 2640 3117 
Q 2685 3264 2685 3421 
Q 2685 3581 2632 3721 
Q 2579 3862 2475 3968 
Q 2371 4074 2216 4134 
Q 2061 4195 1856 4195 
z
M 2512 2390 
Q 2941 2269 3171 1984 
Q 3402 1699 3402 1254 
Q 3402 954 3288 712 
Q 3174 470 2971 300 
Q 2768 131 2483 40 
Q 2198 -51 1856 -51 
Q 1514 -51 1229 40 
Q 944 131 739 300 
Q 534 470 422 712 
Q 310 954 310 1254 
Q 310 1699 540 1984 
Q 771 2269 1200 2390 
Q 838 2525 654 2792 
Q 470 3059 470 3430 
Q 470 3683 569 3904 
Q 669 4125 851 4288 
Q 1034 4451 1288 4544 
Q 1542 4637 1856 4637 
Q 2166 4637 2422 4544 
Q 2678 4451 2860 4288 
Q 3043 4125 3142 3904 
Q 3242 3683 3242 3430 
Q 3242 3059 3058 2792 
Q 2874 2525 2512 2390 
z
" transform="scale(0.015625)"/>
       </defs>
       <use xlink:href="#Lato-Regular-18f"/>
       <use xlink:href="#Lato-Regular-137" transform="translate(58 0)"/>
       <use xlink:href="#Lato-Regular-476" transform="translate(80.703125 0)"/>
      </g>
     </g>
    </g>
    <g id="xtick_4">
     <g id="line2d_7">
      <path d="M 415.26 264.24 
L 415.26 37.44 
" clip-path="url(#pe8eae03fb5)" style="fill: none; stroke: #30363d; stroke-linecap: square"/>
     </g>
     <g id="line2d_8"/>
     <g id="text_4">
      <!-- 0,9 -->
      <g style="fill: #9198a1" transform="translate(408.324844 278.29) scale(0.1 -0.1)">
       <defs>
        <path id="Lato-Regular-196" d="M 906 3238 
Q 906 3021 968 2849 
Q 1030 2678 1147 2560 
Q 1264 2442 1432 2381 
Q 1600 2320 1808 2320 
Q 2038 2320 2216 2395 
Q 2394 2470 2515 2595 
Q 2637 2720 2701 2883 
Q 2765 3046 2765 3222 
Q 2765 3437 2696 3611 
Q 2627 3786 2505 3907 
Q 2384 4029 2216 4094 
Q 2048 4160 1846 4160 
Q 1635 4160 1462 4091 
Q 1290 4022 1165 3900 
Q 1040 3779 973 3609 
Q 906 3440 906 3238 
z
M 2237 1827 
Q 2307 1920 2368 2003 
Q 2429 2086 2483 2170 
Q 2307 2029 2086 1955 
Q 1866 1882 1619 1882 
Q 1360 1882 1128 1968 
Q 896 2054 720 2222 
Q 544 2390 440 2635 
Q 336 2880 336 3197 
Q 336 3498 448 3760 
Q 560 4022 761 4217 
Q 963 4413 1241 4525 
Q 1520 4637 1853 4637 
Q 2182 4637 2451 4528 
Q 2720 4419 2912 4224 
Q 3104 4029 3208 3757 
Q 3312 3485 3312 3155 
Q 3312 2957 3275 2779 
Q 3238 2602 3169 2430 
Q 3101 2259 3001 2091 
Q 2902 1923 2778 1747 
L 1661 134 
Q 1619 74 1542 37 
Q 1466 0 1366 0 
L 842 0 
L 2237 1827 
z
" transform="scale(0.015625)"/>
       </defs>
       <use xlink:href="#Lato-Regular-18f"/>
       <use xlink:href="#Lato-Regular-137" transform="translate(58 0)"/>
       <use xlink:href="#Lato-Regular-196" transform="translate(80.703125 0)"/>
      </g>
     </g>
    </g>
    <g id="xtick_5">
     <g id="line2d_9">
      <path d="M 484.56 264.24 
L 484.56 37.44 
" clip-path="url(#pe8eae03fb5)" style="fill: none; stroke: #30363d; stroke-linecap: square"/>
     </g>
     <g id="line2d_10"/>
     <g id="text_5">
      <!-- 1,0 -->
      <g style="fill: #9198a1" transform="translate(477.624844 278.29) scale(0.1 -0.1)">
       <defs>
        <path id="Lato-Regular-190" d="M 3258 435 
L 3258 0 
L 800 0 
L 800 435 
L 1782 435 
L 1782 3562 
Q 1782 3702 1792 3846 
L 976 3146 
Q 934 3110 892 3102 
Q 851 3094 816 3100 
Q 781 3107 750 3126 
Q 720 3146 704 3168 
L 525 3414 
L 1891 4595 
L 2355 4595 
L 2355 435 
L 3258 435 
z
" transform="scale(0.015625)"/>
       </defs>
       <use xlink:href="#Lato-Regular-190"/>
       <use xlink:href="#Lato-Regular-137" transform="translate(58 0)"/>
       <use xlink:href="#Lato-Regular-18f" transform="translate(80.703125 0)"/>
      </g>
     </g>
    </g>
   </g>
   <g id="matplotlib.axis_2"/>
   <g id="line2d_11">
    <path d="M 338.151276 72.54 
L 435.756861 72.54 
" clip-path="url(#pe8eae03fb5)" style="fill: none; stroke: #6e7681; stroke-width: 2.6; stroke-linecap: round"/>
   </g>
   <g id="line2d_12">
    <path d="M 341.883774 126.54 
L 391.470696 126.54 
" clip-path="url(#pe8eae03fb5)" style="fill: none; stroke: #6e7681; stroke-width: 2.6; stroke-linecap: round"/>
   </g>
   <g id="line2d_13">
    <path d="M 303.314166 180.54 
L 397.935 180.54 
" clip-path="url(#pe8eae03fb5)" style="fill: none; stroke: #6e7681; stroke-width: 2.6; stroke-linecap: round"/>
   </g>
   <g id="line2d_14">
    <path d="M 239.344722 234.54 
L 305.721648 234.54 
" clip-path="url(#pe8eae03fb5)" style="fill: none; stroke: #6e7681; stroke-width: 2.6; stroke-linecap: round"/>
   </g>
   <g id="patch_25">
    <path d="M 207.36 264.24 
L 484.56 264.24 
" style="fill: none; stroke: #30363d; stroke-linejoin: miter; stroke-linecap: square"/>
   </g>
   <g id="line2d_15">
    <defs>
     <path id="m80242da56c" d="M 0 5.5 
C 1.458617 5.5 2.857689 4.920485 3.889087 3.889087 
C 4.920485 2.857689 5.5 1.458617 5.5 0 
C 5.5 -1.458617 4.920485 -2.857689 3.889087 -3.889087 
C 2.857689 -4.920485 1.458617 -5.5 0 -5.5 
C -1.458617 -5.5 -2.857689 -4.920485 -3.889087 -3.889087 
C -4.920485 -2.857689 -5.5 -1.458617 -5.5 0 
C -5.5 1.458617 -4.920485 2.857689 -3.889087 3.889087 
C -2.857689 4.920485 -1.458617 5.5 0 5.5 
z
" style="stroke: #0d1117; stroke-width: 2"/>
    </defs>
    <g clip-path="url(#pe8eae03fb5)">
     <use xlink:href="#m80242da56c" x="338.151276" y="72.54" style="fill: #4a8bd6; stroke: #0d1117; stroke-width: 2"/>
    </g>
   </g>
   <g id="line2d_16">
    <defs>
     <path id="m0077a443d1" d="M -5 5 
L 5 5 
L 5 -5 
L -5 -5 
z
" style="stroke: #0d1117; stroke-width: 2; stroke-linejoin: miter"/>
    </defs>
    <g clip-path="url(#pe8eae03fb5)">
     <use xlink:href="#m0077a443d1" x="435.756861" y="72.54" style="fill: #e8692a; stroke: #0d1117; stroke-width: 2; stroke-linejoin: miter"/>
    </g>
   </g>
   <g id="line2d_17">
    <g clip-path="url(#pe8eae03fb5)">
     <use xlink:href="#m80242da56c" x="341.883774" y="126.54" style="fill: #4a8bd6; stroke: #0d1117; stroke-width: 2"/>
    </g>
   </g>
   <g id="line2d_18">
    <g clip-path="url(#pe8eae03fb5)">
     <use xlink:href="#m0077a443d1" x="391.470696" y="126.54" style="fill: #e8692a; stroke: #0d1117; stroke-width: 2; stroke-linejoin: miter"/>
    </g>
   </g>
   <g id="line2d_19">
    <g clip-path="url(#pe8eae03fb5)">
     <use xlink:href="#m80242da56c" x="303.314166" y="180.54" style="fill: #4a8bd6; stroke: #0d1117; stroke-width: 2"/>
    </g>
   </g>
   <g id="line2d_20">
    <g clip-path="url(#pe8eae03fb5)">
     <use xlink:href="#m0077a443d1" x="397.935" y="180.54" style="fill: #e8692a; stroke: #0d1117; stroke-width: 2; stroke-linejoin: miter"/>
    </g>
   </g>
   <g id="line2d_21">
    <g clip-path="url(#pe8eae03fb5)">
     <use xlink:href="#m80242da56c" x="239.344722" y="234.54" style="fill: #4a8bd6; stroke: #0d1117; stroke-width: 2"/>
    </g>
   </g>
   <g id="line2d_22">
    <g clip-path="url(#pe8eae03fb5)">
     <use xlink:href="#m0077a443d1" x="305.721648" y="234.54" style="fill: #e8692a; stroke: #0d1117; stroke-width: 2; stroke-linejoin: miter"/>
    </g>
   </g>
   <g id="text_6">
    <!-- 0,789 -->
    <g style="fill: #9198a1" transform="translate(304.364964 75.59) scale(0.1 -0.1)">
     <use xlink:href="#Lato-Regular-18f"/>
     <use xlink:href="#Lato-Regular-137" transform="translate(58 0)"/>
     <use xlink:href="#Lato-Regular-195" transform="translate(80.703125 0)"/>
     <use xlink:href="#Lato-Regular-476" transform="translate(138.703125 0)"/>
     <use xlink:href="#Lato-Regular-196" transform="translate(196.703125 0)"/>
    </g>
   </g>
   <g id="text_7">
    <!-- 0,930 -->
    <g style="fill: #9198a1" transform="translate(444.072861 75.59) scale(0.1 -0.1)">
     <defs>
      <path id="Lato-Regular-192" d="M 416 3344 
Q 461 3658 589 3899 
Q 717 4141 913 4304 
Q 1110 4467 1364 4552 
Q 1619 4637 1914 4637 
Q 2205 4637 2451 4553 
Q 2698 4470 2875 4316 
Q 3053 4163 3152 3945 
Q 3251 3728 3251 3462 
Q 3251 3245 3195 3073 
Q 3139 2902 3035 2774 
Q 2931 2646 2784 2556 
Q 2637 2467 2454 2410 
Q 2902 2294 3128 2014 
Q 3354 1734 3354 1315 
Q 3354 998 3234 745 
Q 3114 493 2906 315 
Q 2698 138 2421 43 
Q 2144 -51 1827 -51 
Q 1462 -51 1203 40 
Q 944 131 765 291 
Q 586 451 470 670 
Q 355 890 275 1146 
L 522 1248 
Q 618 1290 709 1270 
Q 800 1251 842 1165 
Q 883 1075 945 950 
Q 1008 826 1117 710 
Q 1226 595 1394 515 
Q 1562 435 1821 435 
Q 2061 435 2241 513 
Q 2422 592 2542 717 
Q 2662 842 2723 995 
Q 2784 1149 2784 1299 
Q 2784 1485 2736 1638 
Q 2688 1792 2557 1904 
Q 2426 2016 2197 2080 
Q 1968 2144 1610 2144 
L 1610 2557 
Q 1904 2560 2110 2621 
Q 2317 2682 2446 2787 
Q 2576 2893 2635 3040 
Q 2694 3187 2694 3366 
Q 2694 3565 2632 3712 
Q 2570 3859 2461 3955 
Q 2352 4051 2203 4099 
Q 2054 4147 1882 4147 
Q 1709 4147 1560 4096 
Q 1411 4045 1297 3953 
Q 1184 3862 1107 3737 
Q 1030 3613 998 3462 
Q 957 3350 894 3313 
Q 832 3277 714 3293 
L 416 3344 
z
" transform="scale(0.015625)"/>
     </defs>
     <use xlink:href="#Lato-Regular-18f"/>
     <use xlink:href="#Lato-Regular-137" transform="translate(58 0)"/>
     <use xlink:href="#Lato-Regular-196" transform="translate(80.703125 0)"/>
     <use xlink:href="#Lato-Regular-192" transform="translate(138.703125 0)"/>
     <use xlink:href="#Lato-Regular-18f" transform="translate(196.703125 0)"/>
    </g>
   </g>
   <g id="text_8">
    <!-- F1 de episodios -->
    <g style="fill: #e6edf3" transform="translate(207.36 18.115) scale(0.11 -0.11)">
     <defs>
      <path id="Lato-Bold-d" d="M 1379 3942 
L 1379 2573 
L 3114 2573 
L 3114 1885 
L 1379 1885 
L 1379 0 
L 515 0 
L 515 4627 
L 3434 4627 
L 3434 3942 
L 1379 3942 
z
" transform="scale(0.015625)"/>
      <path id="Lato-Bold-190" d="M 3312 592 
L 3312 0 
L 752 0 
L 752 592 
L 1690 592 
L 1690 3290 
Q 1690 3450 1699 3619 
L 1034 3062 
Q 976 3018 920 3006 
Q 864 2995 814 3004 
Q 765 3014 726 3038 
Q 688 3062 669 3091 
L 419 3434 
L 1830 4634 
L 2480 4634 
L 2480 592 
L 3312 592 
z
" transform="scale(0.015625)"/>
      <path id="Lato-Bold-2" transform="scale(0.015625)"/>
      <path id="Lato-Bold-37" d="M 2451 2445 
Q 2317 2608 2158 2675 
Q 2000 2742 1818 2742 
Q 1638 2742 1494 2675 
Q 1350 2608 1248 2472 
Q 1146 2336 1091 2126 
Q 1037 1917 1037 1632 
Q 1037 1344 1083 1144 
Q 1130 944 1216 817 
Q 1302 691 1427 635 
Q 1552 579 1706 579 
Q 1952 579 2125 681 
Q 2298 784 2451 973 
L 2451 2445 
z
M 3242 4755 
L 3242 0 
L 2758 0 
Q 2602 0 2560 144 
L 2493 461 
Q 2294 234 2036 93 
Q 1779 -48 1437 -48 
Q 1168 -48 944 64 
Q 720 176 558 389 
Q 397 602 309 915 
Q 221 1229 221 1632 
Q 221 1997 320 2310 
Q 419 2624 604 2854 
Q 790 3085 1049 3214 
Q 1309 3344 1632 3344 
Q 1907 3344 2102 3257 
Q 2298 3171 2451 3024 
L 2451 4755 
L 3242 4755 
z
" transform="scale(0.015625)"/>
      <path id="Lato-Bold-3b" d="M 2506 2019 
Q 2506 2173 2462 2309 
Q 2419 2445 2332 2547 
Q 2246 2650 2113 2709 
Q 1981 2768 1805 2768 
Q 1462 2768 1265 2573 
Q 1069 2378 1014 2019 
L 2506 2019 
z
M 998 1542 
Q 1018 1290 1088 1106 
Q 1158 922 1273 802 
Q 1389 682 1547 622 
Q 1706 563 1898 563 
Q 2090 563 2229 608 
Q 2368 653 2472 707 
Q 2576 762 2654 806 
Q 2733 851 2806 851 
Q 2906 851 2954 778 
L 3181 490 
Q 3050 336 2886 232 
Q 2723 128 2545 65 
Q 2368 3 2184 -22 
Q 2000 -48 1827 -48 
Q 1485 -48 1190 65 
Q 896 179 678 401 
Q 461 624 336 952 
Q 211 1280 211 1712 
Q 211 2048 320 2344 
Q 429 2640 632 2859 
Q 835 3078 1128 3206 
Q 1421 3334 1789 3334 
Q 2099 3334 2361 3235 
Q 2624 3136 2813 2945 
Q 3002 2755 3109 2478 
Q 3216 2202 3216 1846 
Q 3216 1667 3177 1604 
Q 3139 1542 3030 1542 
L 998 1542 
z
" transform="scale(0.015625)"/>
      <path id="Lato-Bold-72" d="M 1181 851 
Q 1315 688 1473 621 
Q 1632 554 1818 554 
Q 1997 554 2141 621 
Q 2285 688 2385 825 
Q 2486 963 2540 1172 
Q 2595 1382 2595 1667 
Q 2595 1955 2548 2155 
Q 2502 2355 2416 2480 
Q 2330 2605 2206 2662 
Q 2083 2720 1926 2720 
Q 1680 2720 1507 2616 
Q 1334 2512 1181 2323 
L 1181 851 
z
M 1139 2835 
Q 1341 3062 1597 3203 
Q 1853 3344 2198 3344 
Q 2467 3344 2689 3232 
Q 2912 3120 3073 2907 
Q 3235 2694 3323 2382 
Q 3411 2070 3411 1667 
Q 3411 1299 3312 985 
Q 3213 672 3029 441 
Q 2845 211 2584 81 
Q 2323 -48 2000 -48 
Q 1725 -48 1529 37 
Q 1334 122 1181 272 
L 1181 -1072 
L 390 -1072 
L 390 3283 
L 874 3283 
Q 1027 3283 1075 3139 
L 1139 2835 
z
" transform="scale(0.015625)"/>
      <path id="Lato-Bold-62" d="M 1210 3283 
L 1210 0 
L 416 0 
L 416 3283 
L 1210 3283 
z
M 1318 4240 
Q 1318 4138 1276 4048 
Q 1235 3958 1166 3891 
Q 1098 3824 1005 3784 
Q 912 3744 806 3744 
Q 704 3744 613 3784 
Q 522 3824 454 3891 
Q 387 3958 347 4048 
Q 307 4138 307 4240 
Q 307 4346 347 4438 
Q 387 4531 454 4598 
Q 522 4666 613 4706 
Q 704 4746 806 4746 
Q 912 4746 1005 4706 
Q 1098 4666 1166 4598 
Q 1235 4531 1276 4438 
Q 1318 4346 1318 4240 
z
" transform="scale(0.015625)"/>
      <path id="Lato-Bold-76" d="M 2394 2643 
Q 2362 2592 2326 2571 
Q 2291 2550 2237 2550 
Q 2179 2550 2113 2582 
Q 2048 2614 1961 2654 
Q 1875 2694 1764 2726 
Q 1654 2758 1504 2758 
Q 1270 2758 1137 2659 
Q 1005 2560 1005 2400 
Q 1005 2294 1073 2222 
Q 1142 2150 1256 2096 
Q 1370 2042 1514 1998 
Q 1658 1955 1806 1904 
Q 1955 1853 2099 1787 
Q 2243 1722 2356 1621 
Q 2470 1520 2539 1379 
Q 2608 1238 2608 1040 
Q 2608 803 2523 603 
Q 2438 403 2272 257 
Q 2106 112 1861 30 
Q 1616 -51 1296 -51 
Q 1126 -51 964 -20 
Q 803 10 654 64 
Q 506 118 379 192 
Q 253 266 157 352 
L 339 653 
Q 374 707 422 736 
Q 470 765 544 765 
Q 618 765 683 723 
Q 749 682 835 634 
Q 922 586 1038 544 
Q 1155 502 1334 502 
Q 1475 502 1576 536 
Q 1677 570 1742 624 
Q 1808 678 1838 750 
Q 1869 822 1869 899 
Q 1869 1014 1800 1088 
Q 1731 1162 1617 1216 
Q 1504 1270 1358 1313 
Q 1213 1357 1061 1408 
Q 909 1459 763 1528 
Q 618 1597 504 1702 
Q 390 1808 321 1961 
Q 253 2115 253 2333 
Q 253 2534 333 2716 
Q 413 2899 568 3035 
Q 723 3171 955 3252 
Q 1187 3334 1491 3334 
Q 1830 3334 2108 3222 
Q 2387 3110 2573 2928 
L 2394 2643 
z
" transform="scale(0.015625)"/>
      <path id="Lato-Bold-6f" d="M 1843 3334 
Q 2208 3334 2507 3216 
Q 2806 3098 3019 2880 
Q 3232 2662 3347 2348 
Q 3462 2035 3462 1648 
Q 3462 1258 3347 944 
Q 3232 630 3019 409 
Q 2806 189 2507 70 
Q 2208 -48 1843 -48 
Q 1475 -48 1174 70 
Q 874 189 661 409 
Q 448 630 331 944 
Q 214 1258 214 1648 
Q 214 2035 331 2348 
Q 448 2662 661 2880 
Q 874 3098 1174 3216 
Q 1475 3334 1843 3334 
z
M 1843 560 
Q 2253 560 2449 835 
Q 2646 1110 2646 1642 
Q 2646 2173 2449 2451 
Q 2253 2730 1843 2730 
Q 1427 2730 1227 2450 
Q 1027 2170 1027 1642 
Q 1027 1114 1227 837 
Q 1427 560 1843 560 
z
" transform="scale(0.015625)"/>
     </defs>
     <use xlink:href="#Lato-Bold-d"/>
     <use xlink:href="#Lato-Bold-190" transform="translate(56.59375 0)"/>
     <use xlink:href="#Lato-Bold-2" transform="translate(114.59375 0)"/>
     <use xlink:href="#Lato-Bold-37" transform="translate(138.890625 0)"/>
     <use xlink:href="#Lato-Bold-3b" transform="translate(195.640625 0)"/>
     <use xlink:href="#Lato-Bold-2" transform="translate(249.046875 0)"/>
     <use xlink:href="#Lato-Bold-3b" transform="translate(273.34375 0)"/>
     <use xlink:href="#Lato-Bold-72" transform="translate(326.75 0)"/>
     <use xlink:href="#Lato-Bold-62" transform="translate(383.546875 0)"/>
     <use xlink:href="#Lato-Bold-76" transform="translate(408.953125 0)"/>
     <use xlink:href="#Lato-Bold-6f" transform="translate(452.90625 0)"/>
     <use xlink:href="#Lato-Bold-37" transform="translate(510.359375 0)"/>
     <use xlink:href="#Lato-Bold-62" transform="translate(567.109375 0)"/>
     <use xlink:href="#Lato-Bold-6f" transform="translate(592.515625 0)"/>
     <use xlink:href="#Lato-Bold-76" transform="translate(649.96875 0)"/>
    </g>
   </g>
   <g id="legend_1">
    <g id="line2d_23">
     <defs>
      <path id="ma9c617146a" d="M 0 4.5 
C 1.193414 4.5 2.338109 4.025852 3.181981 3.181981 
C 4.025852 2.338109 4.5 1.193414 4.5 0 
C 4.5 -1.193414 4.025852 -2.338109 3.181981 -3.181981 
C 2.338109 -4.025852 1.193414 -4.5 0 -4.5 
C -1.193414 -4.5 -2.338109 -4.025852 -3.181981 -3.181981 
C -4.025852 -2.338109 -4.5 -1.193414 -4.5 0 
C -4.5 1.193414 -4.025852 2.338109 -3.181981 3.181981 
C -2.338109 4.025852 -1.193414 4.5 0 4.5 
z
" style="stroke: #4a8bd6"/>
     </defs>
     <g>
      <use xlink:href="#ma9c617146a" x="321.152" y="14.31" style="fill: #4a8bd6; stroke: #4a8bd6"/>
     </g>
    </g>
    <g id="text_9">
     <!-- escena -->
     <g style="fill: #9198a1" transform="translate(334.152 17.81) scale(0.1 -0.1)">
      <defs>
       <path id="Lato-Regular-3b" d="M 2621 1974 
Q 2621 2173 2565 2337 
Q 2509 2502 2401 2622 
Q 2294 2742 2140 2808 
Q 1987 2874 1792 2874 
Q 1382 2874 1144 2635 
Q 906 2397 848 1974 
L 2621 1974 
z
M 3082 454 
Q 2976 326 2829 232 
Q 2682 138 2514 77 
Q 2346 16 2166 -14 
Q 1987 -45 1811 -45 
Q 1475 -45 1192 68 
Q 909 182 702 401 
Q 496 621 381 944 
Q 266 1267 266 1686 
Q 266 2026 370 2320 
Q 474 2614 669 2830 
Q 864 3046 1145 3169 
Q 1427 3293 1779 3293 
Q 2070 3293 2318 3195 
Q 2566 3098 2747 2914 
Q 2928 2730 3030 2459 
Q 3133 2189 3133 1843 
Q 3133 1709 3104 1664 
Q 3075 1619 2995 1619 
L 829 1619 
Q 838 1312 913 1085 
Q 989 858 1123 706 
Q 1258 554 1443 478 
Q 1629 403 1859 403 
Q 2074 403 2229 452 
Q 2384 502 2496 560 
Q 2608 618 2683 667 
Q 2758 717 2813 717 
Q 2883 717 2922 662 
L 3082 454 
z
" transform="scale(0.015625)"/>
       <path id="Lato-Regular-76" d="M 2339 2707 
Q 2301 2637 2221 2637 
Q 2173 2637 2112 2672 
Q 2051 2707 1963 2750 
Q 1875 2794 1753 2830 
Q 1632 2867 1466 2867 
Q 1322 2867 1206 2830 
Q 1091 2794 1009 2730 
Q 928 2666 885 2581 
Q 842 2496 842 2397 
Q 842 2272 914 2189 
Q 986 2106 1104 2045 
Q 1222 1984 1372 1937 
Q 1523 1891 1681 1838 
Q 1840 1786 1990 1722 
Q 2141 1658 2259 1562 
Q 2378 1466 2450 1326 
Q 2522 1187 2522 992 
Q 2522 768 2442 577 
Q 2362 387 2205 248 
Q 2048 109 1821 29 
Q 1594 -51 1296 -51 
Q 957 -51 681 59 
Q 406 170 214 342 
L 349 560 
Q 374 602 409 624 
Q 445 646 499 646 
Q 557 646 621 601 
Q 685 557 776 502 
Q 867 448 998 403 
Q 1130 358 1325 358 
Q 1491 358 1616 401 
Q 1741 445 1824 518 
Q 1907 592 1947 688 
Q 1987 784 1987 893 
Q 1987 1027 1915 1115 
Q 1843 1203 1724 1265 
Q 1606 1328 1454 1374 
Q 1302 1421 1144 1472 
Q 986 1523 834 1588 
Q 682 1654 563 1753 
Q 445 1853 373 1998 
Q 301 2144 301 2352 
Q 301 2538 377 2709 
Q 454 2880 601 3009 
Q 749 3139 963 3216 
Q 1178 3293 1453 3293 
Q 1773 3293 2027 3192 
Q 2282 3091 2467 2915 
L 2339 2707 
z
" transform="scale(0.015625)"/>
       <path id="Lato-Regular-31" d="M 2707 2666 
Q 2682 2630 2656 2611 
Q 2630 2592 2586 2592 
Q 2538 2592 2480 2632 
Q 2422 2672 2337 2720 
Q 2253 2768 2129 2808 
Q 2006 2848 1827 2848 
Q 1587 2848 1404 2763 
Q 1222 2678 1099 2518 
Q 976 2358 913 2131 
Q 851 1904 851 1622 
Q 851 1328 918 1099 
Q 986 870 1109 715 
Q 1232 560 1406 478 
Q 1581 397 1798 397 
Q 2006 397 2140 446 
Q 2275 496 2363 557 
Q 2451 618 2510 667 
Q 2570 717 2627 717 
Q 2698 717 2736 662 
L 2896 454 
Q 2790 323 2656 230 
Q 2522 138 2366 75 
Q 2211 13 2041 -16 
Q 1872 -45 1696 -45 
Q 1392 -45 1131 67 
Q 870 179 678 392 
Q 486 605 377 915 
Q 269 1226 269 1622 
Q 269 1984 369 2291 
Q 470 2598 664 2820 
Q 858 3043 1141 3168 
Q 1424 3293 1792 3293 
Q 2134 3293 2395 3182 
Q 2656 3072 2858 2870 
L 2707 2666 
z
" transform="scale(0.015625)"/>
       <path id="Lato-Regular-6d" d="M 989 2771 
Q 1094 2890 1212 2986 
Q 1331 3082 1464 3150 
Q 1597 3219 1745 3256 
Q 1894 3293 2067 3293 
Q 2333 3293 2536 3205 
Q 2739 3117 2875 2955 
Q 3011 2794 3081 2566 
Q 3152 2339 3152 2064 
L 3152 0 
L 2579 0 
L 2579 2064 
Q 2579 2432 2411 2635 
Q 2243 2838 1901 2838 
Q 1648 2838 1429 2716 
Q 1210 2595 1024 2387 
L 1024 0 
L 451 0 
L 451 3242 
L 794 3242 
Q 915 3242 944 3123 
L 989 2771 
z
" transform="scale(0.015625)"/>
       <path id="Lato-Regular-2d" d="M 2208 1459 
Q 1814 1446 1537 1396 
Q 1261 1347 1086 1267 
Q 912 1187 833 1078 
Q 755 970 755 835 
Q 755 707 796 614 
Q 838 522 910 462 
Q 982 403 1080 376 
Q 1178 349 1290 349 
Q 1440 349 1565 379 
Q 1690 410 1800 467 
Q 1910 525 2011 605 
Q 2112 685 2208 787 
L 2208 1459 
z
M 368 2784 
Q 637 3043 947 3171 
Q 1258 3299 1635 3299 
Q 1907 3299 2118 3209 
Q 2330 3120 2474 2960 
Q 2618 2800 2691 2573 
Q 2765 2346 2765 2074 
L 2765 0 
L 2512 0 
Q 2429 0 2384 27 
Q 2339 54 2314 134 
L 2250 442 
Q 2122 323 2000 232 
Q 1878 141 1744 78 
Q 1610 16 1458 -17 
Q 1306 -51 1120 -51 
Q 931 -51 764 1 
Q 598 54 475 160 
Q 352 266 280 427 
Q 208 589 208 810 
Q 208 1002 313 1179 
Q 419 1357 656 1494 
Q 893 1632 1273 1720 
Q 1654 1808 2208 1821 
L 2208 2074 
Q 2208 2451 2045 2644 
Q 1882 2838 1568 2838 
Q 1357 2838 1214 2785 
Q 1072 2733 968 2667 
Q 864 2602 789 2549 
Q 714 2496 640 2496 
Q 582 2496 540 2526 
Q 499 2557 470 2602 
L 368 2784 
z
" transform="scale(0.015625)"/>
      </defs>
      <use xlink:href="#Lato-Regular-3b"/>
      <use xlink:href="#Lato-Regular-76" transform="translate(52.796875 0)"/>
      <use xlink:href="#Lato-Regular-31" transform="translate(96.09375 0)"/>
      <use xlink:href="#Lato-Regular-3b" transform="translate(142.9375 0)"/>
      <use xlink:href="#Lato-Regular-6d" transform="translate(195.734375 0)"/>
      <use xlink:href="#Lato-Regular-2d" transform="translate(251.53125 0)"/>
     </g>
    </g>
    <g id="line2d_24">
     <defs>
      <path id="md157022e7b" d="M -4.25 4.25 
L 4.25 4.25 
L 4.25 -4.25 
L -4.25 -4.25 
z
" style="stroke: #e8692a; stroke-linejoin: miter"/>
     </defs>
     <g>
      <use xlink:href="#md157022e7b" x="386.275437" y="14.31" style="fill: #e8692a; stroke: #e8692a; stroke-linejoin: miter"/>
     </g>
    </g>
    <g id="text_10">
     <!-- sujeto -->
     <g style="fill: #9198a1" transform="translate(399.275437 17.81) scale(0.1 -0.1)">
      <defs>
       <path id="Lato-Regular-86" d="M 3117 3242 
L 3117 0 
L 2778 0 
Q 2656 0 2624 118 
L 2579 467 
Q 2368 234 2105 91 
Q 1843 -51 1504 -51 
Q 1238 -51 1035 37 
Q 832 125 694 285 
Q 557 445 488 672 
Q 419 899 419 1174 
L 419 3242 
L 989 3242 
L 989 1174 
Q 989 806 1157 604 
Q 1325 403 1670 403 
Q 1923 403 2142 523 
Q 2362 643 2547 854 
L 2547 3242 
L 3117 3242 
z
" transform="scale(0.015625)"/>
       <path id="Lato-Regular-66" d="M 1053 3242 
L 1053 -240 
Q 1053 -435 1001 -603 
Q 950 -771 838 -896 
Q 726 -1021 552 -1093 
Q 378 -1165 134 -1165 
Q 32 -1165 -54 -1149 
Q -141 -1133 -227 -1101 
L -205 -794 
Q -198 -765 -184 -750 
Q -170 -736 -144 -733 
Q -118 -730 -78 -731 
Q -38 -733 22 -733 
Q 272 -733 377 -616 
Q 483 -499 483 -240 
L 483 3242 
L 1053 3242 
z
M 1171 4259 
Q 1171 4176 1137 4104 
Q 1104 4032 1048 3976 
Q 992 3920 918 3888 
Q 845 3856 762 3856 
Q 678 3856 606 3888 
Q 534 3920 480 3976 
Q 426 4032 394 4104 
Q 362 4176 362 4259 
Q 362 4342 394 4417 
Q 426 4493 480 4549 
Q 534 4605 606 4637 
Q 678 4669 762 4669 
Q 845 4669 918 4637 
Q 992 4605 1048 4549 
Q 1104 4493 1137 4417 
Q 1171 4342 1171 4259 
z
" transform="scale(0.015625)"/>
       <path id="Lato-Regular-7c" d="M 1446 -51 
Q 1062 -51 856 163 
Q 650 378 650 781 
L 650 2765 
L 259 2765 
Q 208 2765 173 2795 
Q 138 2826 138 2890 
L 138 3117 
L 669 3184 
L 800 4186 
Q 810 4234 843 4264 
Q 877 4294 931 4294 
L 1219 4294 
L 1219 3178 
L 2157 3178 
L 2157 2765 
L 1219 2765 
L 1219 819 
Q 1219 614 1318 515 
Q 1418 416 1574 416 
Q 1664 416 1729 440 
Q 1795 464 1843 493 
Q 1891 522 1924 546 
Q 1958 570 1984 570 
Q 2029 570 2064 515 
L 2230 243 
Q 2083 106 1875 27 
Q 1667 -51 1446 -51 
z
" transform="scale(0.015625)"/>
       <path id="Lato-Regular-6f" d="M 1818 3293 
Q 2173 3293 2457 3174 
Q 2742 3056 2944 2838 
Q 3146 2621 3253 2312 
Q 3360 2003 3360 1622 
Q 3360 1238 3253 931 
Q 3146 624 2944 406 
Q 2742 189 2457 72 
Q 2173 -45 1818 -45 
Q 1459 -45 1172 72 
Q 886 189 684 406 
Q 483 624 376 931 
Q 269 1238 269 1622 
Q 269 2003 376 2312 
Q 483 2621 684 2838 
Q 886 3056 1172 3174 
Q 1459 3293 1818 3293 
z
M 1818 400 
Q 2298 400 2534 721 
Q 2771 1043 2771 1619 
Q 2771 2198 2534 2521 
Q 2298 2845 1818 2845 
Q 1574 2845 1393 2761 
Q 1213 2678 1093 2521 
Q 973 2365 913 2136 
Q 854 1907 854 1619 
Q 854 1043 1092 721 
Q 1331 400 1818 400 
z
" transform="scale(0.015625)"/>
      </defs>
      <use xlink:href="#Lato-Regular-76"/>
      <use xlink:href="#Lato-Regular-86" transform="translate(43.296875 0)"/>
      <use xlink:href="#Lato-Regular-66" transform="translate(99.046875 0)"/>
      <use xlink:href="#Lato-Regular-3b" transform="translate(123.046875 0)"/>
      <use xlink:href="#Lato-Regular-7c" transform="translate(175.5 0)"/>
      <use xlink:href="#Lato-Regular-6f" transform="translate(211.09375 0)"/>
     </g>
    </g>
   </g>
  </g>
  <g id="axes_3">
   <g id="patch_26">
    <path d="M 520.56 264.24 
L 603.36 264.24 
L 603.36 37.44 
L 520.56 37.44 
L 520.56 264.24 
z
" style="fill: none"/>
   </g>
   <g id="matplotlib.axis_3">
    <g id="xtick_6">
     <g id="line2d_25"/>
     <g id="text_11">
      <!-- 0 -->
      <g style="fill: #9198a1" transform="translate(527.401176 278.29) scale(0.1 -0.1)">
       <use xlink:href="#Lato-Regular-18f"/>
      </g>
     </g>
    </g>
    <g id="xtick_7">
     <g id="line2d_26"/>
     <g id="text_12">
      <!-- 0,1 -->
      <g style="fill: #9198a1" transform="translate(547.718961 278.29) scale(0.1 -0.1)">
       <use xlink:href="#Lato-Regular-18f"/>
       <use xlink:href="#Lato-Regular-137" transform="translate(58 0)"/>
       <use xlink:href="#Lato-Regular-190" transform="translate(80.703125 0)"/>
      </g>
     </g>
    </g>
    <g id="xtick_8">
     <g id="line2d_27"/>
     <g id="text_13">
      <!-- 0,2 -->
      <g style="fill: #9198a1" transform="translate(572.071903 278.29) scale(0.1 -0.1)">
       <defs>
        <path id="Lato-Regular-191" d="M 3158 541 
Q 3251 541 3305 486 
Q 3360 432 3360 346 
L 3360 0 
L 301 0 
L 301 195 
Q 301 256 326 320 
Q 352 384 406 438 
L 1875 1914 
Q 2058 2099 2208 2270 
Q 2358 2442 2464 2614 
Q 2570 2787 2627 2964 
Q 2685 3142 2685 3344 
Q 2685 3546 2621 3698 
Q 2557 3850 2446 3949 
Q 2336 4048 2185 4097 
Q 2035 4147 1862 4147 
Q 1686 4147 1539 4096 
Q 1392 4045 1278 3953 
Q 1165 3862 1088 3737 
Q 1011 3613 979 3462 
Q 941 3350 875 3313 
Q 810 3277 691 3293 
L 394 3344 
Q 438 3658 568 3899 
Q 698 4141 894 4304 
Q 1091 4467 1344 4552 
Q 1597 4637 1891 4637 
Q 2182 4637 2435 4550 
Q 2688 4464 2873 4299 
Q 3059 4134 3164 3897 
Q 3270 3661 3270 3360 
Q 3270 3104 3193 2885 
Q 3117 2666 2985 2467 
Q 2854 2269 2683 2080 
Q 2512 1891 2320 1699 
L 1110 464 
Q 1238 499 1369 520 
Q 1501 541 1622 541 
L 3158 541 
z
" transform="scale(0.015625)"/>
       </defs>
       <use xlink:href="#Lato-Regular-18f"/>
       <use xlink:href="#Lato-Regular-137" transform="translate(58 0)"/>
       <use xlink:href="#Lato-Regular-191" transform="translate(80.703125 0)"/>
      </g>
     </g>
    </g>
    <g id="xtick_9">
     <g id="line2d_28"/>
     <g id="text_14">
      <!-- 0,3 -->
      <g style="fill: #9198a1" transform="translate(596.424844 278.29) scale(0.1 -0.1)">
       <use xlink:href="#Lato-Regular-18f"/>
       <use xlink:href="#Lato-Regular-137" transform="translate(58 0)"/>
       <use xlink:href="#Lato-Regular-192" transform="translate(80.703125 0)"/>
      </g>
     </g>
    </g>
   </g>
   <g id="matplotlib.axis_4"/>
   <g id="line2d_29">
    <path d="M 530.301176 264.24 
L 530.301176 37.44 
" clip-path="url(#p268f452929)" style="fill: none; stroke: #9198a1; stroke-width: 1.3; stroke-linecap: square"/>
   </g>
   <g id="line2d_30">
    <path d="M 538.094118 72.54 
L 593.131765 72.54 
" clip-path="url(#p268f452929)" style="fill: none; stroke: #e8692a; stroke-width: 2.6; stroke-linecap: round"/>
   </g>
   <g id="line2d_31">
    <path d="M 533.467059 126.54 
L 565.612941 126.54 
" clip-path="url(#p268f452929)" style="fill: none; stroke: #e8692a; stroke-width: 2.6; stroke-linecap: round"/>
   </g>
   <g id="line2d_32">
    <path d="M 538.094118 180.54 
L 593.131765 180.54 
" clip-path="url(#p268f452929)" style="fill: none; stroke: #e8692a; stroke-width: 2.6; stroke-linecap: round"/>
   </g>
   <g id="line2d_33">
    <path d="M 532.98 234.54 
L 579.494118 234.54 
" clip-path="url(#p268f452929)" style="fill: none; stroke: #e8692a; stroke-width: 2.6; stroke-linecap: round"/>
   </g>
   <g id="patch_27">
    <path d="M 520.56 264.24 
L 603.36 264.24 
" style="fill: none; stroke: #30363d; stroke-linejoin: miter; stroke-linecap: square"/>
   </g>
   <g id="line2d_34">
    <defs>
     <path id="m83c21c5f97" d="M -0 5.303301 
L 5.303301 0 
L 0 -5.303301 
L -5.303301 -0 
z
" style="stroke: #0d1117; stroke-width: 1.8; stroke-linejoin: miter"/>
    </defs>
    <g clip-path="url(#p268f452929)">
     <use xlink:href="#m83c21c5f97" x="564.638824" y="72.54" style="fill: #e8692a; stroke: #0d1117; stroke-width: 1.8; stroke-linejoin: miter"/>
    </g>
   </g>
   <g id="text_15">
    <!-- +0,141 -->
    <g style="fill: #e6edf3" transform="translate(609.984 68.875) scale(0.11 -0.11)">
     <defs>
      <path id="Lato-Bold-1b3" d="M 3418 1856 
L 2176 1856 
L 2176 538 
L 1533 538 
L 1533 1856 
L 298 1856 
L 298 2442 
L 1533 2442 
L 1533 3754 
L 2176 3754 
L 2176 2442 
L 3418 2442 
L 3418 1856 
z
" transform="scale(0.015625)"/>
      <path id="Lato-Bold-18f" d="M 3552 2314 
Q 3552 1709 3422 1262 
Q 3293 816 3064 525 
Q 2835 234 2523 91 
Q 2211 -51 1850 -51 
Q 1488 -51 1179 91 
Q 870 234 643 525 
Q 416 816 288 1262 
Q 160 1709 160 2314 
Q 160 2922 288 3366 
Q 416 3811 643 4102 
Q 870 4394 1179 4536 
Q 1488 4678 1850 4678 
Q 2211 4678 2523 4536 
Q 2835 4394 3064 4102 
Q 3293 3811 3422 3366 
Q 3552 2922 3552 2314 
z
M 2736 2314 
Q 2736 2816 2662 3145 
Q 2589 3475 2465 3670 
Q 2342 3866 2182 3944 
Q 2022 4022 1850 4022 
Q 1680 4022 1521 3944 
Q 1363 3866 1241 3670 
Q 1120 3475 1048 3145 
Q 976 2816 976 2314 
Q 976 1811 1048 1481 
Q 1120 1152 1241 957 
Q 1363 762 1521 683 
Q 1680 605 1850 605 
Q 2022 605 2182 683 
Q 2342 762 2465 957 
Q 2589 1152 2662 1481 
Q 2736 1811 2736 2314 
z
" transform="scale(0.015625)"/>
      <path id="Lato-Bold-137" d="M 378 -784 
Q 320 -736 320 -666 
Q 320 -640 337 -608 
Q 355 -576 381 -550 
Q 416 -512 467 -456 
Q 518 -400 569 -328 
Q 621 -256 664 -171 
Q 707 -86 730 10 
Q 627 10 544 46 
Q 461 83 401 147 
Q 342 211 308 297 
Q 275 384 275 486 
Q 275 576 308 654 
Q 342 733 403 792 
Q 464 851 550 884 
Q 637 918 739 918 
Q 861 918 952 875 
Q 1043 832 1102 757 
Q 1162 682 1192 584 
Q 1222 486 1222 378 
Q 1222 224 1176 54 
Q 1130 -115 1040 -284 
Q 950 -454 817 -614 
Q 685 -774 515 -909 
L 378 -784 
z
" transform="scale(0.015625)"/>
      <path id="Lato-Bold-193" d="M 2278 1744 
L 2278 3258 
Q 2278 3472 2307 3731 
L 870 1744 
L 2278 1744 
z
M 3549 1744 
L 3549 1286 
Q 3549 1222 3507 1176 
Q 3466 1130 3389 1130 
L 2966 1130 
L 2966 0 
L 2278 0 
L 2278 1130 
L 326 1130 
Q 246 1130 185 1179 
Q 125 1229 109 1302 
L 26 1702 
L 2218 4630 
L 2966 4630 
L 2966 1744 
L 3549 1744 
z
" transform="scale(0.015625)"/>
     </defs>
     <use xlink:href="#Lato-Bold-1b3"/>
     <use xlink:href="#Lato-Bold-18f" transform="translate(58 0)"/>
     <use xlink:href="#Lato-Bold-137" transform="translate(116 0)"/>
     <use xlink:href="#Lato-Bold-190" transform="translate(139.40625 0)"/>
     <use xlink:href="#Lato-Bold-193" transform="translate(197.40625 0)"/>
     <use xlink:href="#Lato-Bold-190" transform="translate(255.40625 0)"/>
    </g>
   </g>
   <g id="text_16">
    <!-- [+0,032; +0,258] -->
    <g style="fill: #9198a1" transform="translate(609.984 86.2375) scale(0.095 -0.095)">
     <defs>
      <path id="Lato-Regular-152" d="M 1062 4531 
L 1062 -547 
L 1603 -547 
Q 1674 -547 1717 -592 
Q 1760 -637 1760 -701 
L 1760 -925 
L 582 -925 
L 582 4906 
L 1760 4906 
L 1760 4682 
Q 1760 4618 1717 4574 
Q 1674 4531 1603 4531 
L 1062 4531 
z
" transform="scale(0.015625)"/>
      <path id="Lato-Regular-1b3" d="M 3392 1933 
L 2086 1933 
L 2086 557 
L 1622 557 
L 1622 1933 
L 323 1933 
L 323 2365 
L 1622 2365 
L 1622 3731 
L 2086 3731 
L 2086 2365 
L 3392 2365 
L 3392 1933 
z
" transform="scale(0.015625)"/>
      <path id="Lato-Regular-138" d="M 525 -774 
Q 499 -752 489 -733 
Q 480 -714 480 -685 
Q 480 -662 494 -640 
Q 509 -618 528 -598 
Q 560 -563 609 -505 
Q 659 -448 710 -369 
Q 762 -291 805 -196 
Q 848 -102 867 3 
Q 858 0 846 0 
Q 835 0 826 0 
Q 659 0 555 110 
Q 451 221 451 394 
Q 451 544 555 649 
Q 659 755 832 755 
Q 928 755 1001 720 
Q 1075 685 1125 622 
Q 1175 560 1200 478 
Q 1226 397 1226 301 
Q 1226 157 1186 1 
Q 1146 -154 1067 -306 
Q 989 -458 877 -602 
Q 765 -746 621 -867 
L 525 -774 
z
M 435 2752 
Q 435 2835 465 2908 
Q 496 2982 549 3036 
Q 602 3091 675 3123 
Q 749 3155 832 3155 
Q 915 3155 988 3123 
Q 1062 3091 1116 3036 
Q 1171 2982 1203 2908 
Q 1235 2835 1235 2752 
Q 1235 2666 1203 2594 
Q 1171 2522 1116 2467 
Q 1062 2413 988 2382 
Q 915 2352 832 2352 
Q 749 2352 675 2382 
Q 602 2413 549 2467 
Q 496 2522 465 2594 
Q 435 2666 435 2752 
z
" transform="scale(0.015625)"/>
      <path id="Lato-Regular-2" transform="scale(0.015625)"/>
      <path id="Lato-Regular-194" d="M 1158 2854 
Q 1517 2931 1818 2931 
Q 2176 2931 2451 2825 
Q 2726 2720 2910 2534 
Q 3094 2349 3188 2096 
Q 3283 1843 3283 1546 
Q 3283 1181 3156 886 
Q 3030 592 2808 382 
Q 2586 173 2285 61 
Q 1984 -51 1635 -51 
Q 1434 -51 1248 -11 
Q 1062 29 900 96 
Q 739 163 601 249 
Q 464 336 358 432 
L 534 675 
Q 592 758 685 758 
Q 749 758 829 708 
Q 909 659 1024 598 
Q 1139 538 1294 488 
Q 1450 438 1664 438 
Q 1904 438 2096 515 
Q 2288 592 2425 734 
Q 2563 877 2636 1075 
Q 2710 1274 2710 1520 
Q 2710 1734 2648 1907 
Q 2586 2080 2459 2201 
Q 2333 2323 2144 2390 
Q 1955 2458 1702 2458 
Q 1530 2458 1342 2429 
Q 1155 2400 960 2336 
L 602 2442 
L 970 4586 
L 3142 4586 
L 3142 4336 
Q 3142 4214 3067 4136 
Q 2992 4058 2810 4058 
L 1370 4058 
L 1158 2854 
z
" transform="scale(0.015625)"/>
      <path id="Lato-Regular-153" d="M 1376 -925 
L 198 -925 
L 198 -701 
Q 198 -637 241 -592 
Q 285 -547 355 -547 
L 896 -547 
L 896 4531 
L 355 4531 
Q 285 4531 241 4574 
Q 198 4618 198 4682 
L 198 4906 
L 1376 4906 
L 1376 -925 
z
" transform="scale(0.015625)"/>
     </defs>
     <use xlink:href="#Lato-Regular-152"/>
     <use xlink:href="#Lato-Regular-1b3" transform="translate(30.59375 0)"/>
     <use xlink:href="#Lato-Regular-18f" transform="translate(88.59375 0)"/>
     <use xlink:href="#Lato-Regular-137" transform="translate(146.59375 0)"/>
     <use xlink:href="#Lato-Regular-18f" transform="translate(169.296875 0)"/>
     <use xlink:href="#Lato-Regular-192" transform="translate(227.296875 0)"/>
     <use xlink:href="#Lato-Regular-191" transform="translate(285.296875 0)"/>
     <use xlink:href="#Lato-Regular-138" transform="translate(343.296875 0)"/>
     <use xlink:href="#Lato-Regular-2" transform="translate(369.453125 0)"/>
     <use xlink:href="#Lato-Regular-1b3" transform="translate(395.046875 0)"/>
     <use xlink:href="#Lato-Regular-18f" transform="translate(453.046875 0)"/>
     <use xlink:href="#Lato-Regular-137" transform="translate(511.046875 0)"/>
     <use xlink:href="#Lato-Regular-191" transform="translate(533.75 0)"/>
     <use xlink:href="#Lato-Regular-194" transform="translate(591.75 0)"/>
     <use xlink:href="#Lato-Regular-476" transform="translate(649.75 0)"/>
     <use xlink:href="#Lato-Regular-153" transform="translate(707.75 0)"/>
    </g>
   </g>
   <g id="line2d_35">
    <g clip-path="url(#p268f452929)">
     <use xlink:href="#m83c21c5f97" x="547.835294" y="126.54" style="fill: #e8692a; stroke: #0d1117; stroke-width: 1.8; stroke-linejoin: miter"/>
    </g>
   </g>
   <g id="text_17">
    <!-- +0,072 -->
    <g style="fill: #e6edf3" transform="translate(609.984 122.875) scale(0.11 -0.11)">
     <defs>
      <path id="Lato-Bold-195" d="M 3494 4627 
L 3494 4285 
Q 3494 4131 3462 4036 
Q 3430 3942 3398 3878 
L 1645 269 
Q 1590 157 1491 78 
Q 1392 0 1226 0 
L 653 0 
L 2442 3536 
Q 2502 3645 2561 3736 
Q 2621 3827 2694 3910 
L 480 3910 
Q 406 3910 352 3964 
Q 298 4019 298 4093 
L 298 4627 
L 3494 4627 
z
" transform="scale(0.015625)"/>
      <path id="Lato-Bold-191" d="M 3139 736 
Q 3267 736 3342 664 
Q 3418 592 3418 474 
L 3418 0 
L 243 0 
L 243 262 
Q 243 342 276 430 
Q 310 518 384 589 
L 1789 1997 
Q 1965 2176 2104 2339 
Q 2243 2502 2336 2662 
Q 2429 2822 2478 2987 
Q 2528 3152 2528 3334 
Q 2528 3501 2480 3627 
Q 2432 3754 2344 3840 
Q 2256 3926 2133 3969 
Q 2010 4013 1856 4013 
Q 1715 4013 1595 3973 
Q 1475 3933 1382 3861 
Q 1290 3789 1226 3693 
Q 1162 3597 1130 3482 
Q 1075 3334 988 3286 
Q 902 3238 739 3264 
L 323 3338 
Q 371 3670 508 3921 
Q 646 4173 852 4341 
Q 1059 4509 1326 4593 
Q 1594 4678 1901 4678 
Q 2221 4678 2486 4584 
Q 2752 4490 2941 4317 
Q 3130 4144 3235 3901 
Q 3341 3658 3341 3360 
Q 3341 3104 3265 2886 
Q 3190 2669 3064 2470 
Q 2938 2272 2768 2086 
Q 2598 1901 2413 1709 
L 1370 643 
Q 1520 688 1669 712 
Q 1818 736 1952 736 
L 3139 736 
z
" transform="scale(0.015625)"/>
     </defs>
     <use xlink:href="#Lato-Bold-1b3"/>
     <use xlink:href="#Lato-Bold-18f" transform="translate(58 0)"/>
     <use xlink:href="#Lato-Bold-137" transform="translate(116 0)"/>
     <use xlink:href="#Lato-Bold-18f" transform="translate(139.40625 0)"/>
     <use xlink:href="#Lato-Bold-195" transform="translate(197.40625 0)"/>
     <use xlink:href="#Lato-Bold-191" transform="translate(255.40625 0)"/>
    </g>
   </g>
   <g id="text_18">
    <!-- [+0,013; +0,145] -->
    <g style="fill: #9198a1" transform="translate(609.984 140.2375) scale(0.095 -0.095)">
     <defs>
      <path id="Lato-Regular-193" d="M 2336 1654 
L 2336 3546 
Q 2336 3629 2342 3728 
Q 2349 3827 2362 3930 
L 691 1654 
L 2336 1654 
z
M 3530 1654 
L 3530 1328 
Q 3530 1277 3499 1241 
Q 3469 1206 3405 1206 
L 2835 1206 
L 2835 0 
L 2336 0 
L 2336 1206 
L 301 1206 
Q 237 1206 190 1243 
Q 144 1280 131 1334 
L 74 1626 
L 2304 4586 
L 2835 4586 
L 2835 1654 
L 3530 1654 
z
" transform="scale(0.015625)"/>
     </defs>
     <use xlink:href="#Lato-Regular-152"/>
     <use xlink:href="#Lato-Regular-1b3" transform="translate(30.59375 0)"/>
     <use xlink:href="#Lato-Regular-18f" transform="translate(88.59375 0)"/>
     <use xlink:href="#Lato-Regular-137" transform="translate(146.59375 0)"/>
     <use xlink:href="#Lato-Regular-18f" transform="translate(169.296875 0)"/>
     <use xlink:href="#Lato-Regular-190" transform="translate(227.296875 0)"/>
     <use xlink:href="#Lato-Regular-192" transform="translate(285.296875 0)"/>
     <use xlink:href="#Lato-Regular-138" transform="translate(343.296875 0)"/>
     <use xlink:href="#Lato-Regular-2" transform="translate(369.453125 0)"/>
     <use xlink:href="#Lato-Regular-1b3" transform="translate(395.046875 0)"/>
     <use xlink:href="#Lato-Regular-18f" transform="translate(453.046875 0)"/>
     <use xlink:href="#Lato-Regular-137" transform="translate(511.046875 0)"/>
     <use xlink:href="#Lato-Regular-190" transform="translate(533.75 0)"/>
     <use xlink:href="#Lato-Regular-193" transform="translate(591.75 0)"/>
     <use xlink:href="#Lato-Regular-194" transform="translate(649.75 0)"/>
     <use xlink:href="#Lato-Regular-153" transform="translate(707.75 0)"/>
    </g>
   </g>
   <g id="line2d_36">
    <g clip-path="url(#p268f452929)">
     <use xlink:href="#m83c21c5f97" x="563.664706" y="180.54" style="fill: #e8692a; stroke: #0d1117; stroke-width: 1.8; stroke-linejoin: miter"/>
    </g>
   </g>
   <g id="text_19">
    <!-- +0,137 -->
    <g style="fill: #e6edf3" transform="translate(609.984 176.875) scale(0.11 -0.11)">
     <defs>
      <path id="Lato-Bold-192" d="M 346 3338 
Q 394 3670 531 3921 
Q 669 4173 875 4341 
Q 1082 4509 1349 4593 
Q 1616 4678 1923 4678 
Q 2243 4678 2500 4587 
Q 2758 4496 2940 4334 
Q 3123 4173 3220 3955 
Q 3318 3738 3318 3485 
Q 3318 3264 3268 3096 
Q 3219 2928 3126 2803 
Q 3034 2678 2896 2592 
Q 2758 2506 2586 2448 
Q 3002 2317 3206 2048 
Q 3411 1779 3411 1373 
Q 3411 1027 3283 761 
Q 3155 496 2937 315 
Q 2720 134 2433 41 
Q 2147 -51 1827 -51 
Q 1478 -51 1219 29 
Q 960 109 768 265 
Q 576 422 441 649 
Q 307 877 211 1174 
L 560 1318 
Q 698 1376 818 1349 
Q 938 1322 992 1219 
Q 1050 1107 1118 998 
Q 1187 890 1283 805 
Q 1379 720 1508 667 
Q 1638 614 1818 614 
Q 2019 614 2169 680 
Q 2320 746 2421 851 
Q 2522 957 2571 1086 
Q 2621 1216 2621 1347 
Q 2621 1514 2585 1650 
Q 2550 1786 2438 1882 
Q 2326 1978 2116 2032 
Q 1907 2086 1555 2086 
L 1555 2650 
Q 1846 2653 2038 2704 
Q 2230 2755 2344 2846 
Q 2458 2938 2502 3066 
Q 2547 3194 2547 3347 
Q 2547 3674 2364 3843 
Q 2182 4013 1878 4013 
Q 1738 4013 1619 3973 
Q 1501 3933 1406 3861 
Q 1312 3789 1248 3693 
Q 1184 3597 1152 3482 
Q 1098 3334 1010 3286 
Q 922 3238 762 3264 
L 346 3338 
z
" transform="scale(0.015625)"/>
     </defs>
     <use xlink:href="#Lato-Bold-1b3"/>
     <use xlink:href="#Lato-Bold-18f" transform="translate(58 0)"/>
     <use xlink:href="#Lato-Bold-137" transform="translate(116 0)"/>
     <use xlink:href="#Lato-Bold-190" transform="translate(139.40625 0)"/>
     <use xlink:href="#Lato-Bold-192" transform="translate(197.40625 0)"/>
     <use xlink:href="#Lato-Bold-195" transform="translate(255.40625 0)"/>
    </g>
   </g>
   <g id="text_20">
    <!-- [+0,032; +0,258] -->
    <g style="fill: #9198a1" transform="translate(609.984 194.2375) scale(0.095 -0.095)">
     <use xlink:href="#Lato-Regular-152"/>
     <use xlink:href="#Lato-Regular-1b3" transform="translate(30.59375 0)"/>
     <use xlink:href="#Lato-Regular-18f" transform="translate(88.59375 0)"/>
     <use xlink:href="#Lato-Regular-137" transform="translate(146.59375 0)"/>
     <use xlink:href="#Lato-Regular-18f" transform="translate(169.296875 0)"/>
     <use xlink:href="#Lato-Regular-192" transform="translate(227.296875 0)"/>
     <use xlink:href="#Lato-Regular-191" transform="translate(285.296875 0)"/>
     <use xlink:href="#Lato-Regular-138" transform="translate(343.296875 0)"/>
     <use xlink:href="#Lato-Regular-2" transform="translate(369.453125 0)"/>
     <use xlink:href="#Lato-Regular-1b3" transform="translate(395.046875 0)"/>
     <use xlink:href="#Lato-Regular-18f" transform="translate(453.046875 0)"/>
     <use xlink:href="#Lato-Regular-137" transform="translate(511.046875 0)"/>
     <use xlink:href="#Lato-Regular-191" transform="translate(533.75 0)"/>
     <use xlink:href="#Lato-Regular-194" transform="translate(591.75 0)"/>
     <use xlink:href="#Lato-Regular-476" transform="translate(649.75 0)"/>
     <use xlink:href="#Lato-Regular-153" transform="translate(707.75 0)"/>
    </g>
   </g>
   <g id="line2d_37">
    <g clip-path="url(#p268f452929)">
     <use xlink:href="#m83c21c5f97" x="553.68" y="234.54" style="fill: #e8692a; stroke: #0d1117; stroke-width: 1.8; stroke-linejoin: miter"/>
    </g>
   </g>
   <g id="text_21">
    <!-- +0,096 -->
    <g style="fill: #e6edf3" transform="translate(609.984 230.875) scale(0.11 -0.11)">
     <defs>
      <path id="Lato-Bold-196" d="M 1056 3238 
Q 1056 2851 1256 2648 
Q 1456 2445 1824 2445 
Q 2016 2445 2166 2505 
Q 2317 2566 2419 2672 
Q 2522 2778 2574 2922 
Q 2627 3066 2627 3232 
Q 2627 3421 2569 3569 
Q 2512 3718 2406 3820 
Q 2301 3923 2155 3977 
Q 2010 4032 1837 4032 
Q 1658 4032 1514 3973 
Q 1370 3914 1267 3808 
Q 1165 3702 1110 3556 
Q 1056 3411 1056 3238 
z
M 2106 1795 
Q 2160 1862 2208 1926 
Q 2256 1990 2301 2054 
Q 2141 1952 1949 1899 
Q 1757 1846 1546 1846 
Q 1306 1846 1075 1929 
Q 845 2013 665 2181 
Q 486 2349 376 2597 
Q 266 2845 266 3178 
Q 266 3488 381 3760 
Q 496 4032 704 4237 
Q 912 4442 1203 4560 
Q 1494 4678 1846 4678 
Q 2202 4678 2485 4566 
Q 2768 4454 2968 4252 
Q 3168 4051 3275 3769 
Q 3382 3488 3382 3152 
Q 3382 2938 3345 2746 
Q 3309 2554 3241 2376 
Q 3174 2198 3078 2028 
Q 2982 1859 2864 1693 
L 1805 182 
Q 1750 106 1641 53 
Q 1533 0 1395 0 
L 669 0 
L 2106 1795 
z
" transform="scale(0.015625)"/>
      <path id="Lato-Bold-475" d="M 1670 2947 
L 1510 2749 
Q 1645 2816 1800 2853 
Q 1955 2890 2134 2890 
Q 2397 2890 2645 2803 
Q 2893 2717 3081 2542 
Q 3270 2368 3385 2109 
Q 3501 1850 3501 1504 
Q 3501 1181 3382 897 
Q 3264 614 3049 403 
Q 2835 192 2532 70 
Q 2230 -51 1866 -51 
Q 1494 -51 1200 67 
Q 906 186 698 398 
Q 490 611 379 910 
Q 269 1210 269 1574 
Q 269 1901 401 2245 
Q 534 2589 813 2960 
L 1917 4442 
Q 1974 4518 2084 4572 
Q 2195 4627 2339 4627 
L 3043 4627 
L 1670 2947 
z
M 1850 595 
Q 2038 595 2196 659 
Q 2355 723 2468 838 
Q 2582 954 2646 1109 
Q 2710 1264 2710 1446 
Q 2710 1645 2649 1803 
Q 2589 1962 2477 2072 
Q 2365 2182 2208 2240 
Q 2051 2298 1862 2298 
Q 1674 2298 1520 2234 
Q 1366 2170 1257 2056 
Q 1149 1942 1088 1787 
Q 1027 1632 1027 1453 
Q 1027 1261 1080 1102 
Q 1133 944 1237 832 
Q 1341 720 1494 657 
Q 1648 595 1850 595 
z
" transform="scale(0.015625)"/>
     </defs>
     <use xlink:href="#Lato-Bold-1b3"/>
     <use xlink:href="#Lato-Bold-18f" transform="translate(58 0)"/>
     <use xlink:href="#Lato-Bold-137" transform="translate(116 0)"/>
     <use xlink:href="#Lato-Bold-18f" transform="translate(139.40625 0)"/>
     <use xlink:href="#Lato-Bold-196" transform="translate(197.40625 0)"/>
     <use xlink:href="#Lato-Bold-475" transform="translate(255.40625 0)"/>
    </g>
   </g>
   <g id="text_22">
    <!-- [+0,011; +0,202] -->
    <g style="fill: #9198a1" transform="translate(609.984 248.2375) scale(0.095 -0.095)">
     <use xlink:href="#Lato-Regular-152"/>
     <use xlink:href="#Lato-Regular-1b3" transform="translate(30.59375 0)"/>
     <use xlink:href="#Lato-Regular-18f" transform="translate(88.59375 0)"/>
     <use xlink:href="#Lato-Regular-137" transform="translate(146.59375 0)"/>
     <use xlink:href="#Lato-Regular-18f" transform="translate(169.296875 0)"/>
     <use xlink:href="#Lato-Regular-190" transform="translate(227.296875 0)"/>
     <use xlink:href="#Lato-Regular-190" transform="translate(285.296875 0)"/>
     <use xlink:href="#Lato-Regular-138" transform="translate(343.296875 0)"/>
     <use xlink:href="#Lato-Regular-2" transform="translate(369.453125 0)"/>
     <use xlink:href="#Lato-Regular-1b3" transform="translate(395.046875 0)"/>
     <use xlink:href="#Lato-Regular-18f" transform="translate(453.046875 0)"/>
     <use xlink:href="#Lato-Regular-137" transform="translate(511.046875 0)"/>
     <use xlink:href="#Lato-Regular-191" transform="translate(533.75 0)"/>
     <use xlink:href="#Lato-Regular-18f" transform="translate(591.75 0)"/>
     <use xlink:href="#Lato-Regular-191" transform="translate(649.75 0)"/>
     <use xlink:href="#Lato-Regular-153" transform="translate(707.75 0)"/>
    </g>
   </g>
   <g id="text_23">
    <!-- ganancia del sujeto (IC 95 %) -->
    <g style="fill: #e6edf3" transform="translate(520.56 18.115) scale(0.11 -0.11)">
     <defs>
      <path id="Lato-Bold-5d" d="M 1590 1722 
Q 1738 1722 1846 1762 
Q 1955 1802 2027 1872 
Q 2099 1942 2136 2041 
Q 2173 2141 2173 2259 
Q 2173 2502 2027 2644 
Q 1882 2787 1590 2787 
Q 1299 2787 1153 2644 
Q 1008 2502 1008 2259 
Q 1008 2144 1045 2045 
Q 1082 1946 1154 1874 
Q 1226 1802 1336 1762 
Q 1446 1722 1590 1722 
z
M 2483 -147 
Q 2483 -51 2425 9 
Q 2368 70 2269 104 
Q 2170 138 2037 154 
Q 1904 170 1755 178 
Q 1606 186 1448 192 
Q 1290 198 1139 218 
Q 1008 144 926 45 
Q 845 -54 845 -186 
Q 845 -272 888 -347 
Q 931 -422 1025 -476 
Q 1120 -531 1270 -561 
Q 1421 -592 1638 -592 
Q 1859 -592 2019 -558 
Q 2179 -525 2283 -465 
Q 2387 -406 2435 -324 
Q 2483 -243 2483 -147 
z
M 3270 3171 
L 3270 2877 
Q 3270 2736 3101 2704 
L 2806 2650 
Q 2874 2480 2874 2278 
Q 2874 2035 2776 1838 
Q 2678 1642 2505 1504 
Q 2333 1366 2097 1291 
Q 1862 1216 1590 1216 
Q 1494 1216 1404 1225 
Q 1315 1235 1229 1251 
Q 1075 1158 1075 1043 
Q 1075 944 1166 897 
Q 1258 851 1408 832 
Q 1558 813 1750 808 
Q 1942 803 2144 787 
Q 2346 771 2538 731 
Q 2730 691 2880 604 
Q 3030 518 3121 369 
Q 3213 221 3213 -13 
Q 3213 -230 3105 -435 
Q 2998 -640 2795 -800 
Q 2592 -960 2296 -1057 
Q 2000 -1155 1622 -1155 
Q 1251 -1155 976 -1083 
Q 701 -1011 518 -891 
Q 336 -771 246 -614 
Q 157 -458 157 -288 
Q 157 -58 296 97 
Q 435 253 678 346 
Q 547 413 470 525 
Q 394 637 394 819 
Q 394 893 421 971 
Q 448 1050 501 1126 
Q 554 1203 634 1272 
Q 714 1341 822 1395 
Q 573 1530 430 1754 
Q 288 1978 288 2278 
Q 288 2522 385 2718 
Q 483 2915 657 3054 
Q 832 3194 1070 3267 
Q 1309 3341 1590 3341 
Q 1802 3341 1987 3297 
Q 2173 3254 2326 3171 
L 3270 3171 
z
" transform="scale(0.015625)"/>
      <path id="Lato-Bold-2d" d="M 2125 1402 
Q 1782 1386 1548 1342 
Q 1315 1299 1174 1232 
Q 1034 1165 973 1075 
Q 912 986 912 880 
Q 912 672 1035 582 
Q 1158 493 1357 493 
Q 1600 493 1777 581 
Q 1955 669 2125 848 
L 2125 1402 
z
M 314 2826 
Q 880 3344 1677 3344 
Q 1965 3344 2192 3249 
Q 2419 3155 2576 2987 
Q 2733 2819 2814 2585 
Q 2896 2352 2896 2074 
L 2896 0 
L 2538 0 
Q 2426 0 2365 33 
Q 2304 67 2269 170 
L 2198 406 
Q 2074 294 1955 209 
Q 1837 125 1709 67 
Q 1581 10 1435 -20 
Q 1290 -51 1114 -51 
Q 906 -51 730 5 
Q 554 61 426 173 
Q 298 285 227 451 
Q 157 618 157 838 
Q 157 963 198 1086 
Q 240 1210 334 1322 
Q 429 1434 579 1533 
Q 730 1632 949 1705 
Q 1168 1779 1459 1825 
Q 1750 1872 2125 1882 
L 2125 2074 
Q 2125 2403 1984 2561 
Q 1843 2720 1578 2720 
Q 1386 2720 1259 2675 
Q 1133 2630 1037 2574 
Q 941 2518 862 2473 
Q 784 2429 688 2429 
Q 605 2429 547 2472 
Q 490 2515 454 2573 
L 314 2826 
z
" transform="scale(0.015625)"/>
      <path id="Lato-Bold-6d" d="M 1130 2880 
Q 1229 2979 1339 3064 
Q 1450 3149 1573 3208 
Q 1696 3267 1837 3300 
Q 1978 3334 2144 3334 
Q 2413 3334 2621 3243 
Q 2829 3152 2968 2987 
Q 3107 2822 3179 2593 
Q 3251 2365 3251 2090 
L 3251 0 
L 2461 0 
L 2461 2090 
Q 2461 2390 2323 2555 
Q 2186 2720 1904 2720 
Q 1699 2720 1520 2627 
Q 1341 2534 1181 2374 
L 1181 0 
L 390 0 
L 390 3283 
L 874 3283 
Q 1027 3283 1075 3139 
L 1130 2880 
z
" transform="scale(0.015625)"/>
      <path id="Lato-Bold-31" d="M 2742 2589 
Q 2707 2544 2673 2518 
Q 2640 2493 2576 2493 
Q 2515 2493 2457 2529 
Q 2400 2566 2320 2612 
Q 2240 2659 2129 2696 
Q 2019 2733 1856 2733 
Q 1648 2733 1491 2657 
Q 1334 2582 1230 2441 
Q 1126 2301 1075 2101 
Q 1024 1901 1024 1648 
Q 1024 1386 1080 1181 
Q 1136 976 1241 837 
Q 1347 698 1497 626 
Q 1648 554 1837 554 
Q 2026 554 2142 600 
Q 2259 646 2339 702 
Q 2419 758 2478 804 
Q 2538 851 2611 851 
Q 2707 851 2755 778 
L 2982 490 
Q 2851 336 2697 232 
Q 2544 128 2379 65 
Q 2214 3 2040 -22 
Q 1866 -48 1693 -48 
Q 1389 -48 1120 65 
Q 851 179 649 396 
Q 448 614 331 929 
Q 214 1245 214 1648 
Q 214 2010 318 2318 
Q 422 2627 624 2852 
Q 826 3078 1123 3206 
Q 1421 3334 1808 3334 
Q 2176 3334 2453 3216 
Q 2730 3098 2950 2877 
L 2742 2589 
z
" transform="scale(0.015625)"/>
      <path id="Lato-Bold-474" d="M 1190 4755 
L 1190 0 
L 400 0 
L 400 4755 
L 1190 4755 
z
" transform="scale(0.015625)"/>
      <path id="Lato-Bold-86" d="M 3219 3283 
L 3219 0 
L 2736 0 
Q 2579 0 2538 144 
L 2483 406 
Q 2282 202 2038 75 
Q 1795 -51 1466 -51 
Q 1197 -51 990 40 
Q 784 131 643 297 
Q 502 464 430 693 
Q 358 922 358 1197 
L 358 3283 
L 1149 3283 
L 1149 1197 
Q 1149 896 1288 731 
Q 1427 566 1706 566 
Q 1910 566 2089 657 
Q 2269 749 2429 909 
L 2429 3283 
L 3219 3283 
z
" transform="scale(0.015625)"/>
      <path id="Lato-Bold-66" d="M 1210 3283 
L 1210 -112 
Q 1210 -326 1154 -515 
Q 1098 -704 974 -846 
Q 851 -989 651 -1070 
Q 451 -1152 163 -1152 
Q 51 -1152 -45 -1137 
Q -141 -1123 -243 -1091 
L -214 -666 
Q -205 -602 -163 -584 
Q -122 -566 -3 -566 
Q 115 -566 196 -542 
Q 278 -518 326 -465 
Q 374 -413 395 -326 
Q 416 -240 416 -112 
L 416 3283 
L 1210 3283 
z
M 1318 4240 
Q 1318 4138 1276 4048 
Q 1235 3958 1166 3891 
Q 1098 3824 1003 3784 
Q 909 3744 803 3744 
Q 701 3744 611 3784 
Q 522 3824 454 3891 
Q 387 3958 347 4048 
Q 307 4138 307 4240 
Q 307 4346 347 4438 
Q 387 4531 454 4598 
Q 522 4666 611 4706 
Q 701 4746 803 4746 
Q 909 4746 1003 4706 
Q 1098 4666 1166 4598 
Q 1235 4531 1276 4438 
Q 1318 4346 1318 4240 
z
" transform="scale(0.015625)"/>
      <path id="Lato-Bold-7c" d="M 1485 -51 
Q 1056 -51 827 190 
Q 598 432 598 858 
L 598 2691 
L 262 2691 
Q 198 2691 153 2732 
Q 109 2774 109 2858 
L 109 3171 
L 637 3258 
L 803 4154 
Q 819 4218 864 4253 
Q 909 4288 979 4288 
L 1389 4288 
L 1389 3254 
L 2266 3254 
L 2266 2691 
L 1389 2691 
L 1389 912 
Q 1389 758 1464 672 
Q 1539 586 1670 586 
Q 1744 586 1793 603 
Q 1843 621 1880 640 
Q 1917 659 1945 676 
Q 1974 694 2003 694 
Q 2038 694 2060 676 
Q 2083 659 2109 624 
L 2346 240 
Q 2173 96 1949 22 
Q 1725 -51 1485 -51 
z
" transform="scale(0.015625)"/>
      <path id="Lato-Bold-150" d="M 918 2006 
Q 918 1347 1078 710 
Q 1238 74 1536 -486 
Q 1568 -550 1573 -600 
Q 1578 -650 1565 -686 
Q 1552 -723 1525 -750 
Q 1498 -778 1466 -797 
L 1114 -1011 
Q 877 -646 710 -278 
Q 544 90 438 464 
Q 333 838 283 1222 
Q 234 1606 234 2006 
Q 234 2406 283 2792 
Q 333 3178 438 3552 
Q 544 3926 710 4292 
Q 877 4659 1114 5024 
L 1466 4813 
Q 1498 4794 1525 4766 
Q 1552 4739 1565 4702 
Q 1578 4666 1573 4616 
Q 1568 4566 1536 4499 
Q 1238 3942 1078 3304 
Q 918 2666 918 2006 
z
" transform="scale(0.015625)"/>
      <path id="Lato-Bold-11" d="M 1379 0 
L 515 0 
L 515 4627 
L 1379 4627 
L 1379 0 
z
" transform="scale(0.015625)"/>
      <path id="Lato-Bold-7" d="M 3693 1091 
Q 3763 1091 3818 1037 
L 4157 669 
Q 3875 320 3464 134 
Q 3053 -51 2477 -51 
Q 1962 -51 1550 125 
Q 1139 301 848 614 
Q 557 928 401 1363 
Q 246 1798 246 2314 
Q 246 2835 412 3268 
Q 579 3702 881 4016 
Q 1184 4330 1603 4504 
Q 2022 4678 2531 4678 
Q 3037 4678 3429 4512 
Q 3821 4346 4096 4077 
L 3808 3677 
Q 3782 3638 3742 3609 
Q 3702 3581 3632 3581 
Q 3584 3581 3533 3608 
Q 3482 3635 3421 3675 
Q 3360 3715 3280 3763 
Q 3200 3811 3094 3851 
Q 2989 3891 2849 3918 
Q 2710 3946 2528 3946 
Q 2218 3946 1960 3835 
Q 1702 3725 1516 3515 
Q 1331 3306 1228 3003 
Q 1126 2701 1126 2314 
Q 1126 1923 1236 1619 
Q 1347 1315 1536 1107 
Q 1725 899 1981 788 
Q 2237 678 2531 678 
Q 2707 678 2849 697 
Q 2992 717 3112 758 
Q 3232 800 3339 865 
Q 3446 931 3552 1027 
Q 3584 1056 3619 1073 
Q 3654 1091 3693 1091 
z
" transform="scale(0.015625)"/>
      <path id="Lato-Bold-194" d="M 1299 2947 
Q 1453 2979 1593 2993 
Q 1734 3008 1866 3008 
Q 2230 3008 2508 2899 
Q 2787 2790 2976 2598 
Q 3165 2406 3261 2148 
Q 3357 1891 3357 1594 
Q 3357 1226 3227 922 
Q 3098 618 2867 402 
Q 2637 186 2321 67 
Q 2006 -51 1635 -51 
Q 1418 -51 1222 -6 
Q 1027 38 856 113 
Q 685 189 539 286 
Q 394 384 278 493 
L 522 829 
Q 598 938 723 938 
Q 803 938 886 886 
Q 970 835 1077 774 
Q 1184 714 1329 662 
Q 1475 611 1680 611 
Q 1898 611 2064 681 
Q 2230 752 2340 878 
Q 2451 1005 2507 1179 
Q 2563 1354 2563 1558 
Q 2563 1936 2344 2149 
Q 2125 2362 1696 2362 
Q 1366 2362 1021 2240 
L 528 2381 
L 912 4627 
L 3197 4627 
L 3197 4291 
Q 3197 4122 3091 4016 
Q 2986 3910 2733 3910 
L 1462 3910 
L 1299 2947 
z
" transform="scale(0.015625)"/>
      <path id="Lato-Bold-477" d="M 2384 3507 
Q 2384 3245 2296 3033 
Q 2208 2822 2061 2673 
Q 1914 2525 1718 2445 
Q 1523 2365 1312 2365 
Q 1082 2365 886 2445 
Q 691 2525 548 2673 
Q 406 2822 326 3033 
Q 246 3245 246 3507 
Q 246 3776 326 3993 
Q 406 4211 548 4361 
Q 691 4512 886 4593 
Q 1082 4675 1312 4675 
Q 1542 4675 1739 4593 
Q 1936 4512 2080 4361 
Q 2224 4211 2304 3993 
Q 2384 3776 2384 3507 
z
M 1776 3507 
Q 1776 3693 1739 3817 
Q 1702 3942 1640 4019 
Q 1578 4096 1493 4129 
Q 1408 4163 1312 4163 
Q 1216 4163 1133 4129 
Q 1050 4096 990 4019 
Q 931 3942 896 3817 
Q 861 3693 861 3507 
Q 861 3328 896 3208 
Q 931 3088 990 3014 
Q 1050 2941 1133 2909 
Q 1216 2877 1312 2877 
Q 1408 2877 1493 2909 
Q 1578 2941 1640 3014 
Q 1702 3088 1739 3208 
Q 1776 3328 1776 3507 
z
M 3923 4502 
Q 3965 4550 4021 4588 
Q 4077 4627 4179 4627 
L 4755 4627 
L 1318 118 
Q 1277 67 1219 33 
Q 1162 0 1078 0 
L 490 0 
L 3923 4502 
z
M 4998 1088 
Q 4998 826 4910 614 
Q 4822 403 4675 254 
Q 4528 106 4333 24 
Q 4138 -58 3926 -58 
Q 3696 -58 3501 24 
Q 3306 106 3163 254 
Q 3021 403 2941 614 
Q 2861 826 2861 1088 
Q 2861 1357 2941 1574 
Q 3021 1792 3163 1942 
Q 3306 2093 3501 2174 
Q 3696 2256 3926 2256 
Q 4157 2256 4353 2174 
Q 4550 2093 4692 1942 
Q 4835 1792 4916 1574 
Q 4998 1357 4998 1088 
z
M 4387 1088 
Q 4387 1274 4352 1398 
Q 4317 1523 4254 1600 
Q 4192 1677 4107 1710 
Q 4022 1744 3926 1744 
Q 3830 1744 3747 1710 
Q 3664 1677 3603 1600 
Q 3542 1523 3508 1398 
Q 3475 1274 3475 1088 
Q 3475 909 3508 787 
Q 3542 666 3603 592 
Q 3664 518 3747 486 
Q 3830 454 3926 454 
Q 4022 454 4107 486 
Q 4192 518 4254 592 
Q 4317 666 4352 787 
Q 4387 909 4387 1088 
z
" transform="scale(0.015625)"/>
      <path id="Lato-Bold-151" d="M 835 2006 
Q 835 2666 676 3304 
Q 518 3942 221 4499 
Q 186 4566 181 4616 
Q 176 4666 189 4702 
Q 202 4739 229 4766 
Q 256 4794 291 4813 
L 643 5024 
Q 880 4659 1046 4292 
Q 1213 3926 1318 3552 
Q 1424 3178 1472 2792 
Q 1520 2406 1520 2006 
Q 1520 1606 1472 1222 
Q 1424 838 1318 464 
Q 1213 90 1046 -278 
Q 880 -646 643 -1011 
L 291 -797 
Q 256 -778 229 -750 
Q 202 -723 189 -686 
Q 176 -650 181 -600 
Q 186 -550 221 -486 
Q 518 74 676 710 
Q 835 1347 835 2006 
z
" transform="scale(0.015625)"/>
     </defs>
     <use xlink:href="#Lato-Bold-5d"/>
     <use xlink:href="#Lato-Bold-2d" transform="translate(52.796875 0)"/>
     <use xlink:href="#Lato-Bold-6d" transform="translate(103.546875 0)"/>
     <use xlink:href="#Lato-Bold-2d" transform="translate(159.953125 0)"/>
     <use xlink:href="#Lato-Bold-6d" transform="translate(210.703125 0)"/>
     <use xlink:href="#Lato-Bold-31" transform="translate(267.109375 0)"/>
     <use xlink:href="#Lato-Bold-62" transform="translate(315.3125 0)"/>
     <use xlink:href="#Lato-Bold-2d" transform="translate(340.71875 0)"/>
     <use xlink:href="#Lato-Bold-2" transform="translate(391.46875 0)"/>
     <use xlink:href="#Lato-Bold-37" transform="translate(415.765625 0)"/>
     <use xlink:href="#Lato-Bold-3b" transform="translate(472.515625 0)"/>
     <use xlink:href="#Lato-Bold-474" transform="translate(525.921875 0)"/>
     <use xlink:href="#Lato-Bold-2" transform="translate(550.765625 0)"/>
     <use xlink:href="#Lato-Bold-76" transform="translate(575.0625 0)"/>
     <use xlink:href="#Lato-Bold-86" transform="translate(619.015625 0)"/>
     <use xlink:href="#Lato-Bold-66" transform="translate(675.421875 0)"/>
     <use xlink:href="#Lato-Bold-3b" transform="translate(700.828125 0)"/>
     <use xlink:href="#Lato-Bold-7c" transform="translate(753.734375 0)"/>
     <use xlink:href="#Lato-Bold-6f" transform="translate(790.53125 0)"/>
     <use xlink:href="#Lato-Bold-2" transform="translate(847.984375 0)"/>
     <use xlink:href="#Lato-Bold-150" transform="translate(872.28125 0)"/>
     <use xlink:href="#Lato-Bold-11" transform="translate(899.734375 0)"/>
     <use xlink:href="#Lato-Bold-7" transform="translate(929.390625 0)"/>
     <use xlink:href="#Lato-Bold-2" transform="translate(995.546875 0)"/>
     <use xlink:href="#Lato-Bold-196" transform="translate(1019.84375 0)"/>
     <use xlink:href="#Lato-Bold-194" transform="translate(1077.84375 0)"/>
     <use xlink:href="#Lato-Bold-2" transform="translate(1135.84375 0)"/>
     <use xlink:href="#Lato-Bold-477" transform="translate(1160.140625 0)"/>
     <use xlink:href="#Lato-Bold-151" transform="translate(1242.09375 0)"/>
    </g>
   </g>
  </g>
  <g id="text_24">
   <!-- 30 fps -->
   <g style="fill: #e6edf3" transform="translate(5.76 68.1) scale(0.12 -0.12)">
    <defs>
     <path id="Lato-Bold-3d" d="M 621 0 
L 621 2688 
L 336 2733 
Q 243 2752 187 2798 
Q 131 2845 131 2931 
L 131 3254 
L 621 3254 
L 621 3498 
Q 621 3779 705 4003 
Q 790 4227 948 4384 
Q 1107 4541 1334 4624 
Q 1562 4707 1846 4707 
Q 2074 4707 2269 4646 
L 2253 4250 
Q 2250 4205 2227 4177 
Q 2205 4150 2168 4136 
Q 2131 4122 2083 4117 
Q 2035 4112 1981 4112 
Q 1840 4112 1729 4081 
Q 1619 4051 1542 3976 
Q 1466 3901 1426 3777 
Q 1386 3654 1386 3472 
L 1386 3254 
L 2240 3254 
L 2240 2691 
L 1411 2691 
L 1411 0 
L 621 0 
z
" transform="scale(0.015625)"/>
    </defs>
    <use xlink:href="#Lato-Bold-192"/>
    <use xlink:href="#Lato-Bold-18f" transform="translate(58 0)"/>
    <use xlink:href="#Lato-Bold-2" transform="translate(116 0)"/>
    <use xlink:href="#Lato-Bold-3d" transform="translate(140.296875 0)"/>
    <use xlink:href="#Lato-Bold-72" transform="translate(176.140625 0)"/>
    <use xlink:href="#Lato-Bold-76" transform="translate(232.9375 0)"/>
   </g>
  </g>
  <g id="text_25">
   <!-- referencia DBE · stride 1 -->
   <g style="fill: #9198a1" transform="translate(5.76 86.7775) scale(0.095 -0.095)">
    <defs>
     <path id="Lato-Regular-75" d="M 992 2592 
Q 1146 2925 1370 3112 
Q 1594 3299 1917 3299 
Q 2019 3299 2113 3276 
Q 2208 3254 2282 3206 
L 2240 2781 
Q 2221 2701 2144 2701 
Q 2099 2701 2012 2720 
Q 1926 2739 1818 2739 
Q 1664 2739 1544 2694 
Q 1424 2650 1329 2562 
Q 1235 2474 1160 2344 
Q 1085 2214 1024 2048 
L 1024 0 
L 451 0 
L 451 3242 
L 778 3242 
Q 870 3242 905 3206 
Q 941 3171 954 3085 
L 992 2592 
z
" transform="scale(0.015625)"/>
     <path id="Lato-Regular-3d" d="M 662 0 
L 662 2755 
L 304 2797 
Q 237 2813 193 2846 
Q 150 2880 150 2944 
L 150 3178 
L 662 3178 
L 662 3491 
Q 662 3770 740 3986 
Q 819 4202 964 4350 
Q 1110 4499 1315 4576 
Q 1520 4653 1776 4653 
Q 1994 4653 2176 4589 
L 2163 4304 
Q 2157 4227 2078 4220 
Q 2000 4214 1869 4214 
Q 1722 4214 1602 4176 
Q 1482 4138 1395 4051 
Q 1309 3965 1262 3824 
Q 1216 3683 1216 3475 
L 1216 3178 
L 2150 3178 
L 2150 2765 
L 1235 2765 
L 1235 0 
L 662 0 
z
" transform="scale(0.015625)"/>
     <path id="Lato-Regular-62" d="M 1053 3242 
L 1053 0 
L 483 0 
L 483 3242 
L 1053 3242 
z
M 1174 4259 
Q 1174 4176 1140 4104 
Q 1107 4032 1051 3976 
Q 995 3920 920 3888 
Q 845 3856 762 3856 
Q 678 3856 606 3888 
Q 534 3920 480 3976 
Q 426 4032 394 4104 
Q 362 4176 362 4259 
Q 362 4342 394 4417 
Q 426 4493 480 4549 
Q 534 4605 606 4637 
Q 678 4669 762 4669 
Q 845 4669 920 4637 
Q 995 4605 1051 4549 
Q 1107 4493 1140 4417 
Q 1174 4342 1174 4259 
z
" transform="scale(0.015625)"/>
     <path id="Lato-Regular-9" d="M 4560 2291 
Q 4560 1776 4397 1353 
Q 4234 931 3936 630 
Q 3638 330 3220 165 
Q 2803 0 2298 0 
L 586 0 
L 586 4586 
L 2298 4586 
Q 2803 4586 3220 4421 
Q 3638 4256 3936 3953 
Q 4234 3651 4397 3228 
Q 4560 2806 4560 2291 
z
M 3923 2291 
Q 3923 2714 3808 3046 
Q 3693 3379 3481 3609 
Q 3270 3840 2969 3961 
Q 2669 4083 2298 4083 
L 1206 4083 
L 1206 502 
L 2298 502 
Q 2669 502 2969 624 
Q 3270 746 3481 974 
Q 3693 1203 3808 1536 
Q 3923 1869 3923 2291 
z
" transform="scale(0.015625)"/>
     <path id="Lato-Regular-6" d="M 2195 493 
Q 2461 493 2653 553 
Q 2845 614 2968 724 
Q 3091 835 3148 987 
Q 3206 1139 3206 1322 
Q 3206 1677 2953 1883 
Q 2701 2090 2195 2090 
L 1203 2090 
L 1203 493 
L 2195 493 
z
M 1203 4096 
L 1203 2531 
L 2022 2531 
Q 2285 2531 2478 2588 
Q 2672 2646 2798 2748 
Q 2925 2851 2985 2996 
Q 3046 3142 3046 3315 
Q 3046 3722 2803 3909 
Q 2560 4096 2048 4096 
L 1203 4096 
z
M 2048 4586 
Q 2470 4586 2776 4502 
Q 3082 4419 3278 4265 
Q 3475 4112 3568 3889 
Q 3661 3667 3661 3389 
Q 3661 3219 3608 3064 
Q 3555 2909 3449 2774 
Q 3344 2640 3182 2533 
Q 3021 2426 2803 2358 
Q 3309 2262 3563 1998 
Q 3818 1734 3818 1306 
Q 3818 1014 3710 774 
Q 3603 534 3396 361 
Q 3190 189 2889 94 
Q 2589 0 2205 0 
L 586 0 
L 586 4586 
L 2048 4586 
z
" transform="scale(0.015625)"/>
     <path id="Lato-Regular-b" d="M 3414 506 
L 3411 0 
L 586 0 
L 586 4586 
L 3411 4586 
L 3411 4080 
L 1206 4080 
L 1206 2557 
L 2992 2557 
L 2992 2070 
L 1206 2070 
L 1206 506 
L 3414 506 
z
" transform="scale(0.015625)"/>
     <path id="Lato-Regular-14f" d="M 355 1898 
Q 355 1997 392 2086 
Q 429 2176 494 2240 
Q 560 2304 645 2342 
Q 730 2381 826 2381 
Q 925 2381 1014 2342 
Q 1104 2304 1168 2240 
Q 1232 2176 1270 2086 
Q 1309 1997 1309 1898 
Q 1309 1802 1270 1715 
Q 1232 1629 1168 1563 
Q 1104 1498 1014 1461 
Q 925 1424 826 1424 
Q 730 1424 645 1461 
Q 560 1498 494 1563 
Q 429 1629 392 1715 
Q 355 1802 355 1898 
z
" transform="scale(0.015625)"/>
     <path id="Lato-Regular-37" d="M 2563 2470 
Q 2403 2685 2217 2769 
Q 2032 2854 1802 2854 
Q 1350 2854 1107 2531 
Q 864 2208 864 1610 
Q 864 1293 918 1067 
Q 973 842 1078 696 
Q 1184 550 1337 483 
Q 1491 416 1686 416 
Q 1968 416 2177 544 
Q 2387 672 2563 906 
L 2563 2470 
z
M 3133 4714 
L 3133 0 
L 2794 0 
Q 2672 0 2640 118 
L 2589 512 
Q 2381 262 2115 108 
Q 1850 -45 1501 -45 
Q 1222 -45 995 62 
Q 768 170 608 378 
Q 448 586 361 896 
Q 275 1206 275 1610 
Q 275 1968 371 2277 
Q 467 2586 646 2813 
Q 826 3040 1086 3169 
Q 1347 3299 1674 3299 
Q 1971 3299 2184 3198 
Q 2397 3098 2563 2918 
L 2563 4714 
L 3133 4714 
z
" transform="scale(0.015625)"/>
    </defs>
    <use xlink:href="#Lato-Regular-75"/>
    <use xlink:href="#Lato-Regular-3b" transform="translate(34.359375 0)"/>
    <use xlink:href="#Lato-Regular-3d" transform="translate(86.65625 0)"/>
    <use xlink:href="#Lato-Regular-3b" transform="translate(120.046875 0)"/>
    <use xlink:href="#Lato-Regular-75" transform="translate(172.84375 0)"/>
    <use xlink:href="#Lato-Regular-3b" transform="translate(207.203125 0)"/>
    <use xlink:href="#Lato-Regular-6d" transform="translate(260 0)"/>
    <use xlink:href="#Lato-Regular-31" transform="translate(315.796875 0)"/>
    <use xlink:href="#Lato-Regular-62" transform="translate(363.546875 0)"/>
    <use xlink:href="#Lato-Regular-2d" transform="translate(387.546875 0)"/>
    <use xlink:href="#Lato-Regular-2" transform="translate(437.25 0)"/>
    <use xlink:href="#Lato-Regular-9" transform="translate(462.84375 0)"/>
    <use xlink:href="#Lato-Regular-6" transform="translate(538.890625 0)"/>
    <use xlink:href="#Lato-Regular-b" transform="translate(603.546875 0)"/>
    <use xlink:href="#Lato-Regular-2" transform="translate(661.296875 0)"/>
    <use xlink:href="#Lato-Regular-14f" transform="translate(686.890625 0)"/>
    <use xlink:href="#Lato-Regular-2" transform="translate(712.890625 0)"/>
    <use xlink:href="#Lato-Regular-76" transform="translate(738.484375 0)"/>
    <use xlink:href="#Lato-Regular-7c" transform="translate(781.78125 0)"/>
    <use xlink:href="#Lato-Regular-75" transform="translate(817.625 0)"/>
    <use xlink:href="#Lato-Regular-62" transform="translate(854.03125 0)"/>
    <use xlink:href="#Lato-Regular-37" transform="translate(878.03125 0)"/>
    <use xlink:href="#Lato-Regular-3b" transform="translate(934.03125 0)"/>
    <use xlink:href="#Lato-Regular-2" transform="translate(986.828125 0)"/>
    <use xlink:href="#Lato-Regular-190" transform="translate(1012.421875 0)"/>
   </g>
  </g>
  <g id="text_26">
   <!-- 4,29 fps -->
   <g style="fill: #e6edf3" transform="translate(5.76 122.1) scale(0.12 -0.12)">
    <use xlink:href="#Lato-Bold-193"/>
    <use xlink:href="#Lato-Bold-137" transform="translate(58 0)"/>
    <use xlink:href="#Lato-Bold-191" transform="translate(81.40625 0)"/>
    <use xlink:href="#Lato-Bold-196" transform="translate(139.40625 0)"/>
    <use xlink:href="#Lato-Bold-2" transform="translate(197.40625 0)"/>
    <use xlink:href="#Lato-Bold-3d" transform="translate(221.703125 0)"/>
    <use xlink:href="#Lato-Bold-72" transform="translate(257.546875 0)"/>
    <use xlink:href="#Lato-Bold-76" transform="translate(314.34375 0)"/>
   </g>
  </g>
  <g id="text_27">
   <!-- techo en vivo · stride 7 -->
   <g style="fill: #9198a1" transform="translate(5.76 140.7775) scale(0.095 -0.095)">
    <defs>
     <path id="Lato-Regular-5f" d="M 1024 2810 
Q 1232 3030 1485 3161 
Q 1738 3293 2067 3293 
Q 2333 3293 2536 3205 
Q 2739 3117 2875 2955 
Q 3011 2794 3081 2566 
Q 3152 2339 3152 2064 
L 3152 0 
L 2579 0 
L 2579 2064 
Q 2579 2432 2411 2635 
Q 2243 2838 1901 2838 
Q 1648 2838 1429 2716 
Q 1210 2595 1024 2387 
L 1024 0 
L 451 0 
L 451 4714 
L 1024 4714 
L 1024 2810 
z
" transform="scale(0.015625)"/>
     <path id="Lato-Regular-88" d="M 3229 3242 
L 1907 0 
L 1395 0 
L 74 3242 
L 538 3242 
Q 608 3242 653 3206 
Q 698 3171 714 3123 
L 1536 1037 
Q 1574 918 1603 806 
Q 1632 694 1658 582 
Q 1683 694 1712 806 
Q 1741 918 1782 1037 
L 2614 3123 
Q 2634 3174 2678 3208 
Q 2723 3242 2784 3242 
L 3229 3242 
z
" transform="scale(0.015625)"/>
    </defs>
    <use xlink:href="#Lato-Regular-7c"/>
    <use xlink:href="#Lato-Regular-3b" transform="translate(35.59375 0)"/>
    <use xlink:href="#Lato-Regular-31" transform="translate(88.390625 0)"/>
    <use xlink:href="#Lato-Regular-5f" transform="translate(136.140625 0)"/>
    <use xlink:href="#Lato-Regular-6f" transform="translate(191.9375 0)"/>
    <use xlink:href="#Lato-Regular-2" transform="translate(248.640625 0)"/>
    <use xlink:href="#Lato-Regular-3b" transform="translate(274.234375 0)"/>
    <use xlink:href="#Lato-Regular-6d" transform="translate(327.03125 0)"/>
    <use xlink:href="#Lato-Regular-2" transform="translate(382.828125 0)"/>
    <use xlink:href="#Lato-Regular-88" transform="translate(406.015625 0)"/>
    <use xlink:href="#Lato-Regular-62" transform="translate(457.609375 0)"/>
    <use xlink:href="#Lato-Regular-88" transform="translate(481.609375 0)"/>
    <use xlink:href="#Lato-Regular-6f" transform="translate(531.796875 0)"/>
    <use xlink:href="#Lato-Regular-2" transform="translate(588.5 0)"/>
    <use xlink:href="#Lato-Regular-14f" transform="translate(614.09375 0)"/>
    <use xlink:href="#Lato-Regular-2" transform="translate(640.09375 0)"/>
    <use xlink:href="#Lato-Regular-76" transform="translate(665.6875 0)"/>
    <use xlink:href="#Lato-Regular-7c" transform="translate(708.984375 0)"/>
    <use xlink:href="#Lato-Regular-75" transform="translate(744.828125 0)"/>
    <use xlink:href="#Lato-Regular-62" transform="translate(781.234375 0)"/>
    <use xlink:href="#Lato-Regular-37" transform="translate(805.234375 0)"/>
    <use xlink:href="#Lato-Regular-3b" transform="translate(861.234375 0)"/>
    <use xlink:href="#Lato-Regular-2" transform="translate(914.03125 0)"/>
    <use xlink:href="#Lato-Regular-195" transform="translate(939.625 0)"/>
   </g>
  </g>
  <g id="text_28">
   <!-- 2,00 fps -->
   <g style="fill: #e6edf3" transform="translate(5.76 176.1) scale(0.12 -0.12)">
    <use xlink:href="#Lato-Bold-191"/>
    <use xlink:href="#Lato-Bold-137" transform="translate(58 0)"/>
    <use xlink:href="#Lato-Bold-18f" transform="translate(81.40625 0)"/>
    <use xlink:href="#Lato-Bold-18f" transform="translate(139.40625 0)"/>
    <use xlink:href="#Lato-Bold-2" transform="translate(197.40625 0)"/>
    <use xlink:href="#Lato-Bold-3d" transform="translate(221.703125 0)"/>
    <use xlink:href="#Lato-Bold-72" transform="translate(257.546875 0)"/>
    <use xlink:href="#Lato-Bold-76" transform="translate(314.34375 0)"/>
   </g>
  </g>
  <g id="text_29">
   <!-- lo que corrió el rodaje · stride 15 -->
   <g style="fill: #9198a1" transform="translate(5.76 194.7775) scale(0.095 -0.095)">
    <defs>
     <path id="Lato-Regular-474" d="M 1040 4714 
L 1040 0 
L 470 0 
L 470 4714 
L 1040 4714 
z
" transform="scale(0.015625)"/>
     <path id="Lato-Regular-74" d="M 2563 2474 
Q 2410 2678 2221 2766 
Q 2032 2854 1802 2854 
Q 1350 2854 1107 2531 
Q 864 2208 864 1610 
Q 864 1293 918 1067 
Q 973 842 1078 696 
Q 1184 550 1337 483 
Q 1491 416 1686 416 
Q 1968 416 2177 544 
Q 2387 672 2563 906 
L 2563 2474 
z
M 3133 3242 
L 3133 -1098 
L 2563 -1098 
L 2563 483 
Q 2362 246 2099 100 
Q 1837 -45 1501 -45 
Q 1222 -45 995 62 
Q 768 170 608 378 
Q 448 586 361 896 
Q 275 1206 275 1610 
Q 275 1968 371 2277 
Q 467 2586 646 2813 
Q 826 3040 1086 3169 
Q 1347 3299 1674 3299 
Q 1990 3299 2211 3187 
Q 2432 3075 2602 2874 
L 2640 3123 
Q 2672 3242 2794 3242 
L 3133 3242 
z
" transform="scale(0.015625)"/>
     <path id="Lato-Regular-955" d="M 1818 3293 
Q 2173 3293 2457 3174 
Q 2742 3056 2944 2838 
Q 3146 2621 3253 2312 
Q 3360 2003 3360 1622 
Q 3360 1238 3253 931 
Q 3146 624 2944 406 
Q 2742 189 2457 72 
Q 2173 -45 1818 -45 
Q 1459 -45 1172 72 
Q 886 189 684 406 
Q 483 624 376 931 
Q 269 1238 269 1622 
Q 269 2003 376 2312 
Q 483 2621 684 2838 
Q 886 3056 1172 3174 
Q 1459 3293 1818 3293 
z
M 1818 400 
Q 2298 400 2534 721 
Q 2771 1043 2771 1619 
Q 2771 2198 2534 2521 
Q 2298 2845 1818 2845 
Q 1574 2845 1393 2761 
Q 1213 2678 1093 2521 
Q 973 2365 913 2136 
Q 854 1907 854 1619 
Q 854 1043 1092 721 
Q 1331 400 1818 400 
z
M 2752 4637 
L 2007 3811 
Q 1962 3763 1918 3742 
Q 1875 3722 1808 3722 
L 1469 3722 
L 1943 4496 
Q 1987 4570 2040 4603 
Q 2093 4637 2195 4637 
L 2752 4637 
z
" transform="scale(0.015625)"/>
    </defs>
    <use xlink:href="#Lato-Regular-474"/>
    <use xlink:href="#Lato-Regular-6f" transform="translate(23.59375 0)"/>
    <use xlink:href="#Lato-Regular-2" transform="translate(80.296875 0)"/>
    <use xlink:href="#Lato-Regular-74" transform="translate(105.890625 0)"/>
    <use xlink:href="#Lato-Regular-86" transform="translate(161.890625 0)"/>
    <use xlink:href="#Lato-Regular-3b" transform="translate(217.640625 0)"/>
    <use xlink:href="#Lato-Regular-2" transform="translate(270.4375 0)"/>
    <use xlink:href="#Lato-Regular-31" transform="translate(296.03125 0)"/>
    <use xlink:href="#Lato-Regular-6f" transform="translate(342.875 0)"/>
    <use xlink:href="#Lato-Regular-75" transform="translate(399.578125 0)"/>
    <use xlink:href="#Lato-Regular-75" transform="translate(435.984375 0)"/>
    <use xlink:href="#Lato-Regular-62" transform="translate(472.390625 0)"/>
    <use xlink:href="#Lato-Regular-955" transform="translate(496.390625 0)"/>
    <use xlink:href="#Lato-Regular-2" transform="translate(553.09375 0)"/>
    <use xlink:href="#Lato-Regular-3b" transform="translate(578.6875 0)"/>
    <use xlink:href="#Lato-Regular-474" transform="translate(631.484375 0)"/>
    <use xlink:href="#Lato-Regular-2" transform="translate(655.078125 0)"/>
    <use xlink:href="#Lato-Regular-75" transform="translate(680.671875 0)"/>
    <use xlink:href="#Lato-Regular-6f" transform="translate(715.03125 0)"/>
    <use xlink:href="#Lato-Regular-37" transform="translate(771.734375 0)"/>
    <use xlink:href="#Lato-Regular-2d" transform="translate(827.734375 0)"/>
    <use xlink:href="#Lato-Regular-66" transform="translate(877.4375 0)"/>
    <use xlink:href="#Lato-Regular-3b" transform="translate(901.4375 0)"/>
    <use xlink:href="#Lato-Regular-2" transform="translate(954.234375 0)"/>
    <use xlink:href="#Lato-Regular-14f" transform="translate(979.828125 0)"/>
    <use xlink:href="#Lato-Regular-2" transform="translate(1005.828125 0)"/>
    <use xlink:href="#Lato-Regular-76" transform="translate(1031.421875 0)"/>
    <use xlink:href="#Lato-Regular-7c" transform="translate(1074.71875 0)"/>
    <use xlink:href="#Lato-Regular-75" transform="translate(1110.5625 0)"/>
    <use xlink:href="#Lato-Regular-62" transform="translate(1146.96875 0)"/>
    <use xlink:href="#Lato-Regular-37" transform="translate(1170.96875 0)"/>
    <use xlink:href="#Lato-Regular-3b" transform="translate(1226.96875 0)"/>
    <use xlink:href="#Lato-Regular-2" transform="translate(1279.765625 0)"/>
    <use xlink:href="#Lato-Regular-190" transform="translate(1305.359375 0)"/>
    <use xlink:href="#Lato-Regular-194" transform="translate(1363.359375 0)"/>
   </g>
  </g>
  <g id="text_30">
   <!-- 1,15 fps -->
   <g style="fill: #e6edf3" transform="translate(5.76 230.1) scale(0.12 -0.12)">
    <use xlink:href="#Lato-Bold-190"/>
    <use xlink:href="#Lato-Bold-137" transform="translate(58 0)"/>
    <use xlink:href="#Lato-Bold-190" transform="translate(81.40625 0)"/>
    <use xlink:href="#Lato-Bold-194" transform="translate(139.40625 0)"/>
    <use xlink:href="#Lato-Bold-2" transform="translate(197.40625 0)"/>
    <use xlink:href="#Lato-Bold-3d" transform="translate(221.703125 0)"/>
    <use xlink:href="#Lato-Bold-72" transform="translate(257.546875 0)"/>
    <use xlink:href="#Lato-Bold-76" transform="translate(314.34375 0)"/>
   </g>
  </g>
  <g id="text_31">
   <!-- peor caso en vivo · stride 26 -->
   <g style="fill: #9198a1" transform="translate(5.76 248.7775) scale(0.095 -0.095)">
    <defs>
     <path id="Lato-Regular-72" d="M 1024 781 
Q 1181 570 1366 483 
Q 1552 397 1782 397 
Q 2237 397 2480 720 
Q 2723 1043 2723 1642 
Q 2723 1958 2667 2185 
Q 2611 2413 2505 2558 
Q 2400 2704 2246 2771 
Q 2093 2838 1898 2838 
Q 1619 2838 1409 2710 
Q 1200 2582 1024 2349 
L 1024 781 
z
M 995 2739 
Q 1200 2992 1469 3145 
Q 1738 3299 2083 3299 
Q 2365 3299 2592 3192 
Q 2819 3085 2979 2875 
Q 3139 2666 3225 2355 
Q 3312 2045 3312 1642 
Q 3312 1283 3216 974 
Q 3120 666 2939 440 
Q 2758 214 2497 84 
Q 2237 -45 1910 -45 
Q 1613 -45 1400 56 
Q 1187 157 1024 336 
L 1024 -1098 
L 451 -1098 
L 451 3242 
L 794 3242 
Q 915 3242 944 3123 
L 995 2739 
z
" transform="scale(0.015625)"/>
    </defs>
    <use xlink:href="#Lato-Regular-72"/>
    <use xlink:href="#Lato-Regular-3b" transform="translate(56.046875 0)"/>
    <use xlink:href="#Lato-Regular-6f" transform="translate(108.84375 0)"/>
    <use xlink:href="#Lato-Regular-75" transform="translate(165.546875 0)"/>
    <use xlink:href="#Lato-Regular-2" transform="translate(199.859375 0)"/>
    <use xlink:href="#Lato-Regular-31" transform="translate(225.453125 0)"/>
    <use xlink:href="#Lato-Regular-2d" transform="translate(273.203125 0)"/>
    <use xlink:href="#Lato-Regular-76" transform="translate(322.90625 0)"/>
    <use xlink:href="#Lato-Regular-6f" transform="translate(366.203125 0)"/>
    <use xlink:href="#Lato-Regular-2" transform="translate(422.90625 0)"/>
    <use xlink:href="#Lato-Regular-3b" transform="translate(448.5 0)"/>
    <use xlink:href="#Lato-Regular-6d" transform="translate(501.296875 0)"/>
    <use xlink:href="#Lato-Regular-2" transform="translate(557.09375 0)"/>
    <use xlink:href="#Lato-Regular-88" transform="translate(580.28125 0)"/>
    <use xlink:href="#Lato-Regular-62" transform="translate(631.875 0)"/>
    <use xlink:href="#Lato-Regular-88" transform="translate(655.875 0)"/>
    <use xlink:href="#Lato-Regular-6f" transform="translate(706.0625 0)"/>
    <use xlink:href="#Lato-Regular-2" transform="translate(762.765625 0)"/>
    <use xlink:href="#Lato-Regular-14f" transform="translate(788.359375 0)"/>
    <use xlink:href="#Lato-Regular-2" transform="translate(814.359375 0)"/>
    <use xlink:href="#Lato-Regular-76" transform="translate(839.953125 0)"/>
    <use xlink:href="#Lato-Regular-7c" transform="translate(883.25 0)"/>
    <use xlink:href="#Lato-Regular-75" transform="translate(919.09375 0)"/>
    <use xlink:href="#Lato-Regular-62" transform="translate(955.5 0)"/>
    <use xlink:href="#Lato-Regular-37" transform="translate(979.5 0)"/>
    <use xlink:href="#Lato-Regular-3b" transform="translate(1035.5 0)"/>
    <use xlink:href="#Lato-Regular-2" transform="translate(1088.296875 0)"/>
    <use xlink:href="#Lato-Regular-191" transform="translate(1113.890625 0)"/>
    <use xlink:href="#Lato-Regular-475" transform="translate(1171.890625 0)"/>
   </g>
  </g>
  <g id="text_32">
   <!-- cadencias en vivo -->
   <g style="fill: #9198a1" transform="translate(194.4175 216.956172) rotate(-90) scale(0.095 -0.095)">
    <use xlink:href="#Lato-Regular-31"/>
    <use xlink:href="#Lato-Regular-2d" transform="translate(47.75 0)"/>
    <use xlink:href="#Lato-Regular-37" transform="translate(97.453125 0)"/>
    <use xlink:href="#Lato-Regular-3b" transform="translate(153.453125 0)"/>
    <use xlink:href="#Lato-Regular-6d" transform="translate(206.25 0)"/>
    <use xlink:href="#Lato-Regular-31" transform="translate(262.046875 0)"/>
    <use xlink:href="#Lato-Regular-62" transform="translate(309.796875 0)"/>
    <use xlink:href="#Lato-Regular-2d" transform="translate(333.796875 0)"/>
    <use xlink:href="#Lato-Regular-76" transform="translate(383.5 0)"/>
    <use xlink:href="#Lato-Regular-2" transform="translate(426.796875 0)"/>
    <use xlink:href="#Lato-Regular-3b" transform="translate(452.390625 0)"/>
    <use xlink:href="#Lato-Regular-6d" transform="translate(505.1875 0)"/>
    <use xlink:href="#Lato-Regular-2" transform="translate(560.984375 0)"/>
    <use xlink:href="#Lato-Regular-88" transform="translate(584.171875 0)"/>
    <use xlink:href="#Lato-Regular-62" transform="translate(635.765625 0)"/>
    <use xlink:href="#Lato-Regular-88" transform="translate(659.765625 0)"/>
    <use xlink:href="#Lato-Regular-6f" transform="translate(709.953125 0)"/>
   </g>
  </g>
 </g>
 <defs>
  <clipPath id="p013bd9ae7f">
   <rect x="175.68" y="37.44" width="8.64" height="226.8"/>
  </clipPath>
  <clipPath id="pfaeb7109f0">
   <rect x="175.68" y="104.94" width="8.64" height="151.2"/>
  </clipPath>
  <clipPath id="pe8eae03fb5">
   <rect x="207.36" y="37.44" width="277.2" height="226.8"/>
  </clipPath>
  <clipPath id="p268f452929">
   <rect x="520.56" y="37.44" width="82.8" height="226.8"/>
  </clipPath>
 </defs>
</svg>
